<svg xmlns="http://www.w3.org/2000/svg"><defs><font id="viroregular" horiz-adv-x="940"><font-face units-per-em="2048" ascent="1638" descent="-410"/><glyph horiz-adv-x="2048"/><glyph horiz-adv-x="2048"/><glyph horiz-adv-x="2048"/><glyph horiz-adv-x="491"/><glyph horiz-adv-x="491"/><glyph horiz-adv-x="491"/><glyph unicode="!" horiz-adv-x="346" d="M82 1399q0 17 12 29t29 12h100q17 0 29-12t12-29l-20-950q0-17-12-29t-29-12h-60q-17 0-29 12t-12 29zM84 37v106q0 15 12 27t29 12h92q17 0 28-11.5t11-27.5V37q0-16-11-27.5T217-2h-92q-17 0-29 12T84 37z"/><glyph unicode="&quot;" horiz-adv-x="548" d="M82 1399q-1 17 11 29t30 12h78q18 0 30-12t11-29l-21-316q-2-18-13-29.5t-28-11.5h-37q-17 0-28 11.5t-13 29.5zm225 0q-1 17 11 29t30 12h78q18 0 30-12t11-29l-21-316q-2-18-12.5-29.5T406 1042h-37q-17 0-28 11.5t-13 29.5z"/><glyph unicode="#" horiz-adv-x="1107" d="M82 469v57q0 17 12 29t29 12h160q2 0 4 2l39 303q0 3-2 5H176q-17 0-29 12t-12 29v57q0 17 12 29t29 12h166q4 0 4 2l51 381q1 15 13.5 26t27.5 11h56q15 0 30-15 11-15 11-26v-6l-52-369q0-2 2-4h217q5 0 5 2l51 381q2 15 13 26t26 11h57q16 0 31-15 10-13 10-32l-49-369v-4h139q17 0 29-12t12-29v-57q0-17-12-29t-29-12H827q-4 0-4-5l-37-301v-4h148q17 0 29-12t12-29v-57q0-17-12-29t-29-12H768q-4 0-4-2L713 33q-1-15-13.5-25T672-2h-60q-19 0-30 14-9 14-9 27v6l50 379v4H406q-3 0-5-2L352 33q-1-15-13.5-25T311-2h-57q-20 0-31 14-10 10-10 27v6l51 379q0 2-2 4H123q-17 0-29 12t-12 29zm342 102q0-2 2-4h215q4 0 4 2l41 303q0 1-1 2.5t-1 2.5H469q-4 0-4-5z"/><glyph unicode="$" horiz-adv-x="1026" d="M82 406q0 22 10 32 13 13 31 13h55q15 0 27.5-10t13.5-25q8-49 25-97 25-61 63-102 42-42 94-63 58-25 119-25 62 0 111 14 51 15 92 45 42 31 63 80 25 52 25 121 0 54-25 96-30 46-67 70-45 31-98 51-55 21-111 39-44 15-139 53-77 33-129 74-50 40-92 111-37 67-37 166 0 83 30 147 28 64 80 107 50 38 125 63 53 16 90 18v195q0 17 12 29t29 12h60q17 0 29-12t12-29v-195q65-9 116-32 76-39 123-95 47-60 68-129 16-63 20-92 0-20-10-30-12-15-31-15h-55q-15 0-26.5 10t-14.5 25q-6 41-22 82-23 48-60 82t-84 51q-50 16-98 16-50 0-96-12-39-8-82-35-39-25-60-65-22-39-22-96 0-55 26-99 21-39 68-71 48-33 98-52 89-33 115-43 44-15 139-53 69-26 127-72 58-49 90-108 35-65 35-162t-31-170q-36-78-90-123-60-53-135-76Q634 3 580-2v-193q0-17-12-29t-29-12h-60q-17 0-29 12t-12 29V4q-45 10-80 23-84 38-139 90-58 55-98 143-33 75-39 146z"/><glyph unicode="%" horiz-adv-x="1511" d="M82 1012q0 192 86 311 82 111 207 111 130 0 203-105 75-107 75-297 0-201-86-317-77-109-202-109-119 0-199 103-84 114-84 303zm135-15q0-165 72-237 32-35 80-35 72 0 112 82 37 78 37 215 0 133-35 211-41 84-116 84-69 0-111-86-39-83-39-209v-25zM463-6q0 6 2 10l418 1462q3 12 14.5 20.5t24.5 8.5h57q20 0 33-16 8-16 8-25 0-6-2-10L606-18q-3-13-14-22t-25-9h-63q-20 0-33 16-8 16-8 27zm395 397q0 196 86 311 79 111 207 111 135 0 209-115 70-109 70-288 0-200-87-320-77-106-202-106-123 0-199 102-81 110-84 305zm135 6q-2-86 17.5-155.5T1065 137q34-37 80-37 71 0 112 84 37 78 37 217 0 134-34 209-41 86-117 86-62 0-103-71-47-83-47-228z"/><glyph unicode="&amp;" horiz-adv-x="1202" d="M82 381q0 134 63 237 63 105 181 177l2 2q0 2-2 4-103 147-103 295 0 140 82 241 89 111 242 111 122 0 201-82t79-221q0-116-63-205-70-96-209-172-2-2-2-4v-4q210-269 297-379l2-2 4 2q74 136 111 369 1 15 13.5 24.5t27.5 9.5h71q22 0 33-14 8-11 8-25v-8q-51-313-170-475l-2-2 2-2 31-37q14-17 55.5-67.5T1102 74q10-13 10-29 0-4-4-16-11-25-39-25h-96q-17 0-31 14-18 21-39 45-10 12-32.5 38.5T842 135q-2 2-4 2t-2-2Q762 61 672 20q-86-38-201-38-179 0-287 120Q82 213 82 381zm164 29q0-121 71-201 74-80 185-80 148 0 250 121v4l-17 20Q509 554 406 688l-3 2h-2q-65-50-100-102-55-79-55-178zm135 704q0-120 90-246l2-2h4q96 62 144 119 55 70 55 152 0 28-7 56.5t-22 57-45 46.5-70 18q-64 0-106-51-45-57-45-150z"/><glyph unicode="'" horiz-adv-x="323" d="M82 1399q-1 17 11 29t30 12h78q18 0 30-12t11-29l-21-316q-2-18-13-29.5t-28-11.5h-37q-17 0-28 11.5t-13 29.5z"/><glyph unicode="(" horiz-adv-x="507" d="M82 612q0 269 78 508 56 174 151 318 12 18 35 18h39q22 0 35-20 4-6 4-21 0-14-4-20-195-329-195-787 0-256 68-475 45-152 129-301 4-6 4-20 0-13-4-19-13-20-37-20h-39q-23 0-35 18-93 138-151 315-78 236-78 506z"/><glyph unicode=")" horiz-adv-x="507" d="M82-186q0 8 6 20 195 341 195 782 0 260-66 480-45 152-129 301-6 9-6 20 0 10 6 19 10 20 35 20h39q23 0 35-18 99-151 153-316 76-229 76-508-3-477-229-823-12-18-35-18h-39q-25 0-35 20-6 9-6 21z"/><glyph unicode="*" horiz-adv-x="813" d="M82 987q0 25 20 35l162 94-162 94q-20 9-20 33 0 14 6 23l29 51q11 20 37 20 14 0 20-4l162-94v188q0 17 12 29t29 12h59q17 0 29-12t12-29v-188l164 94q6 4 18 4 28 0 37-20l31-51q4-6 4-21 0-26-20-35l-162-94 162-94q20-11 20-37 0-12-4-18l-31-54q-13-20-37-20-9 0-18 6l-164 94V805q0-17-12-29t-29-12h-59q-17 0-29 12t-12 29v188l-162-94q-6-4-20-4-25 0-37 18l-29 54q-6 9-6 20z"/><glyph unicode="+" horiz-adv-x="1048" d="M82 547v43q0 17 12 29t29 12h338v338q0 17 12 29t29 12h45q17 0 29-12t12-29V631h338q17 0 29-12t12-29v-43q0-19-12-31t-29-12H588V166q0-17-12-29t-29-12h-45q-17 0-29 12t-12 29v338H123q-17 0-29 12t-12 31z"/><glyph unicode="," horiz-adv-x="335" d="M82 35l2 106q0 17 12 29t29 12l88-2q20 0 29-12 12-12 12-29l-4-196q-3-112-53-150-11-8-25-8h-8q-15 2-29 12-18 12-18 35 0 12 6 21 4 7 6.5 19t3 20.5 1.5 27 1 25.5l2 43q0 4-4 4h-10Q106-6 94 6T82 35z"/><glyph unicode="-" horiz-adv-x="862" d="M82 549v43q0 17 12 29t29 12h616q17 0 29-12t12-29v-43q0-18-11.5-29.5T739 508H123q-18 0-29.5 11.5T82 549z"/><glyph unicode="." horiz-adv-x="335" d="M82 37v106q0 15 12 27t27 12h94q15 0 27-12t12-27V37q0-15-12-27T215-2h-94q-15 0-27 12T82 37z"/><glyph unicode="/" horiz-adv-x="759" d="M82-197q0 9 2 13l457 1626q3 12 15 20t26 8h57q21 0 31-16 8-11 8-27v-8L225-207q-3-13-14-22t-25-9h-63q-19 0-33 17-8 8-8 24z"/><glyph unicode="0" horiz-adv-x="1038" d="M82 719q0 165 27 297 27 134 84 227 55 94 137 146 79 49 188 49t191-49q82-52 137-146 57-93 84-227 26-127 26-297 0-169-26-299-26-129-84-227-59-97-137-144Q627-2 518-2 412-2 330 49q-78 47-137 144-58 98-84 227-27 132-27 299zm145 0q0-146 23-268 25-116 63-185 37-69 93-104 50-33 112-33 65 0 115 33 52 34 92 104 40 72 61 185 25 116 25 268 0 136-25 268-26 123-61 184-45 78-92 105-50 33-115 33-54 0-112-33-56-34-93-105-38-67-63-184-23-122-23-268z"/><glyph unicode="1" horiz-adv-x="305" d="M82 41v1358q0 17 12 29t29 12h59q17 0 29-12t12-29V41q0-17-12-29T182 0h-59q-17 0-29 12T82 41z"/><glyph unicode="2" horiz-adv-x="995" d="M82 41v98q0 7 2 11 14 77 63 153 37 62 99 135 53 58 119 115 103 84 122 98 55 43 105 84 48 43 88 88 42 49 63 92 25 48 25 99 0 65-20 127-17 51-54 92-29 36-78 55-46 19-96 19-124 0-201-80-69-69-81-191-2-15-14-26t-29-11h-68q-18 0-33 15-8 16-8 28v7q13 75 39 135 38 81 92 135 58 58 135 88 76 31 168 31 100 0 170-33 81-38 125-90 50-56 74-129 24-71 24-148 0-87-28-157-34-79-76-129-51-61-111-107-32-26-125-100-37-28-110-88-53-43-96-90-39-42-76-101-35-60-49-104v-4q1 0 2-1t2-1h626q17 0 29-12t12-29V41q0-17-12-30T872-2H123q-17 0-29 13T82 41z"/><glyph unicode="3" horiz-adv-x="1028" d="M82 397q0 15 8 23 13 16 33 16h67q14 0 26-10t15-23q13-60 41-118 36-65 74-97 39-34 90-49 50-16 92-16 52 0 99 20 43 17 86 56 39 36 63 86 23 50 23 116 0 58-19 113-21 54-57 92-38 41-90 62-55 22-117 22h-45q-17 0-29 12t-12 29v62q0 17 12 29t29 12h45q64 0 105 20 47 19 69 51 28 36 39 72 12 41 12 84 0 113-61 180-60 66-164 66-53 0-104-23-47-25-76-63-33-39-51-88-15-35-21-72-3-14-14.5-23.5T223 1028h-63q-19 0-33 14-8 11-8 29v8q12 41 35 105 32 79 77 129 48 54 119 90 67 33 166 33 86 0 154-27 65-25 116-76 46-46 74-116 27-73 27-144 0-106-47-186-45-76-123-119-2-2-2-4 0-4 2-4 94-41 162-125 67-85 67-234 0-105-33-178-36-77-92-127-52-50-133-78Q608-8 528-8 349-8 229 106 111 224 84 385q-2 4-2 12z"/><glyph unicode="4" horiz-adv-x="1069" d="M82 397v127q0 14 6 23l555 866q11 21 35 21h82q17 0 29-13t12-30V492q0-5 4-5h139q19 0 31-12t12-31v-47q0-17-12-29t-31-12H805q-4 0-4-4V41q0-17-12-30T760-2h-55q-18 0-30.5 12.5T662 41v311q0 4-5 4H123q-17 0-29 12t-12 29zm129 92q2-2 4-2h442q5 0 5 5v706q-1 2-3 4h-2q-2-2-4-2L211 494v-5z"/><glyph unicode="5" horiz-adv-x="1026" d="M82 332q0 16 8 24 14 17 33 17h67q28 0 39-29 36-102 101-156 75-63 166-63 60 0 116 27 53 26 97 73 41 48 65 111 25 64 25 139 0 64-27 137-23 62-67 109-46 49-99 72-52 24-110 24-64 0-136-35-61-30-102-80-13-16-33-16h-69q-17 0-31 14-10 10-10 27v6l75 664q2 16 13 26.5t28 10.5h600q19 0 31-12t12-29v-50q0-18-12.5-30.5T831 1300H309q-4 0-4-4-6-77-22-215-3-28-12-98.5T258 874q0-2 2-4h4q41 28 66 41 56 23 80 29 36 9 69 12 11 0 27 1t20 1q95 0 168-36 78-38 133-105 56-65 86-151 31-91 31-187 0-98-26-180-28-88-82-154-58-67-142-108Q607-8 494-8 341-8 225 86q-96 77-141 233-2 4-2 13z"/><glyph unicode="6" horiz-adv-x="1017" d="M82 647q0 211 33 352 29 143 90 246 58 99 145 146 86 47 189 47 82 0 151-29 65-26 115-76 55-55 78-108 20-41 28-78 2-4 2-12 0-17-8-25-13-16-33-16h-53q-14 0-25 8.5t-14 21.5q-15 41-22 50-14 32-51 69-33 30-72 47-46 19-92 19-92 0-156-58-58-52-102-149-40-94-54-197-13-92-16-160 0-4 4-4t4 2q22 42 53 70 43 46 86 70 49 28 91 37 39 10 79 10 93 0 168-37 74-38 127-100 56-68 82-152 27-80 27-188 0-95-27-177-27-81-80-147-55-65-127-100Q629-8 535-8 432-8 348 33q-82 43-143 125Q82 324 82 647zm180-190q0-66 23-133 22-65 59-107 40-47 88-70 50-24 103-24 48 0 100 27 52 28 82 69 35 44 53 105 21 72 21 129 0 62-19 127-17 57-53 106-38 51-82 74-48 26-105 26-69 0-118-30-45-26-84-78-32-46-51-107-17-66-17-114z"/><glyph unicode="7" horiz-adv-x="1042" d="M82 1341v50q0 19 12 31t31 12h793q19 0 31-12t12-31v-68q0-16-9-25-148-220-180-274-77-126-151-295-68-157-117-334-47-172-70-360-1-15-13.5-26T393-2h-67q-17 0-31 14-10 13-10 29v6q20 144 57 301 41 172 102 334 59 156 148 319 90 161 190 291 2 2 2 4t-2 2l-2 2H125q-19 0-31 12t-12 29z"/><glyph unicode="8" horiz-adv-x="1011" d="M82 410q0 112 57 206 61 97 135 144 2 0 2 4 0 2-2 2-66 47-114 125-47 80-47 176 0 75 30 143 28 63 84 119 54 51 125 78 76 29 152 29 74 0 153-29 71-27 125-78 56-56 84-119 31-70 31-143 0-96-47-176-45-77-117-125v-2q0-4 2-4 83-53 137-144 58-96 58-206 0-81-33-162-34-75-92-133-53-53-135-90Q586-8 504-8T338 25q-83 38-133 90-55 55-90 133-33 70-33 162zm145 0q0-63 23-113 21-52 59-90 39-42 86-62 48-22 109-22 53 0 108 22 48 22 88 62t60 90q22 55 22 113 0 55-22 110-19 48-60 92-39 43-88 62-55 22-108 22-54 0-109-22-52-22-86-62-39-42-59-92-23-50-23-110zm31 657q0-41 21-92 16-41 51-76 27-27 80-51 51-21 94-21 45 0 96 21 53 24 80 51 36 31 53 76 19 46 19 92 0 45-19 94-18 44-53 74-31 31-80 53-46 19-96 19-48 0-94-19-49-22-80-53-35-35-51-74-21-54-21-94z"/><glyph unicode="9" horiz-adv-x="1017" d="M82 979q0 93 27 176 28 85 79 145 50 62 127 101 73 37 170 37 105 0 185-41 82-40 145-125 121-165 121-486 0-202-31-354-35-151-92-248-61-99-143-145Q589-8 479-8q-84 0-151 28-68 27-117 76t-76 111q-21 44-29 80-2 4-2 10 0 10 11 25 13 16 32 16h50q30 0 41-29 4-20 20-51 21-41 51-68 29-29 74-49 43-18 92-18 93 0 158 59 59 56 98 148 37 80 53 194 9 67 17 164 0 4-4 4t-4-2q-23-39-56-72-44-44-86-67-48-28-88-39-43-12-78-12-98 0-168 37-75 38-127 102-54 62-81 152-27 85-27 188zm145 0q0-65 19-127 19-61 53-107 36-48 80-71 47-27 106-27 71 0 119 29 53 30 86 78 38 62 49 106 17 66 17 115 0 69-23 133-25 64-59 106-35 44-86 70-52 25-103 25-54 0-102-25-47-25-82-70-33-40-55-106-19-62-19-129z"/><glyph unicode=":" horiz-adv-x="335" d="M82 37v106q0 15 12 27t27 12h94q15 0 27-12t12-27V37q0-15-12-27T215-2h-94q-15 0-27 12T82 37zm0 676v106q0 15 12 27t27 12h94q15 0 27-12t12-27V713q0-15-12-27t-27-12h-94q-15 0-27 12t-12 27z"/><glyph unicode=";" horiz-adv-x="335" d="M82 35l2 106q0 17 12 29t29 12l88-2q20 0 29-12 12-12 12-29l-4-196q-3-112-53-150-11-8-25-8h-8q-15 2-29 12-18 12-18 35 0 12 6 21 4 7 6.5 19t3 20.5 1.5 27 1 25.5l2 43q0 4-4 4h-10Q106-6 94 6T82 35zm0 678v106q0 15 12 27t29 12h92q17 0 28-11.5t11-27.5V713q0-16-11-27.5T215 674h-92q-17 0-29 12t-12 27z"/><glyph unicode="&lt;" horiz-adv-x="874" d="M82 539v69q0 22 20 35l629 369q9 6 21 6 11 0 20-6 21-14 21-35v-49q0-24-21-35L221 575l-2-2q0-4 2-4 367-221 549-313 23-13 23-37v-49q0-24-21-35-9-6-20-6-12 0-21 6L102 504q-20 10-20 35z"/><glyph unicode="=" horiz-adv-x="862" d="M82 371v43q0 17 12 29t29 12h616q17 0 29-12t12-29v-43q0-17-12-29t-29-12H123q-17 0-29 12t-12 29zm0 354v43q0 17 12 29t29 12h616q17 0 29-12t12-29v-43q0-17-12-29t-29-12H123q-17 0-29 12t-12 29z"/><glyph unicode="&gt;" horiz-adv-x="874" d="M82 170v49q0 22 20 35l551 315q2 2 2 4 0 3-2 5-367 221-549 313-22 9-22 37v49q0 22 20 35 9 6 21 6 11 0 20-6l629-369q21-14 21-35v-69q0-25-21-35L143 135q-9-6-20-6-12 0-21 6-20 10-20 35z"/><glyph unicode="?" horiz-adv-x="880" d="M82 1040q5 70 29 142 26 79 75 141 44 52 115 90 71 33 145 33 88 0 162-33 73-37 111-86 43-52 61-119 19-68 19-137 0-56-21-117-23-58-53-98-25-36-68-86-31-34-67-82-37-53-51-90-19-45-19-104v-54q0-17-12-28t-29-11h-80q-17 0-28 11t-11 28v62q0 60 21 110 29 60 57 95 13 16 74 81 36 36 74 84 37 43 57 91 21 49 21 108 0 48-13 98-11 40-41 78-20 29-67 53-43 19-97 19-103 0-165-86-58-75-70-199-2-15-13-26t-26-11h-51q-16 0-29 13-10 10-10 30zM354 37v106q0 16 11 27.5t28 11.5h92q17 0 29-12t12-27V37q0-15-12-27T485-2h-92q-17 0-28 11.5T354 37z"/><glyph unicode="@" horiz-adv-x="1417" d="M82 377q0 181 55 321 56 143 148 242 88 98 217 156 121 53 258 53 113 0 215-45 99-41 184-123 83-83 129-190 47-105 47-244 0-135-35-238-40-112-96-176-60-69-137-104Q992-8 909-8q-53 0-80 37-20 23-30 61l-2 4h-2l-2-2q-41-54-76-72Q666-8 602-8q-56 0-106 26-51 28-80 70-37 46-51 96-17 52-17 111 0 96 29 184 29 99 78 170 47 70 123 123 70 47 159 47 47 0 78-16 28-12 57-41 29-34 39-49 7-14 13-23 0-2 4-2t4 2l20 70q3 12 15 20t24 8h39q21 0 31-16 10-13 10-24 0-7-2-11-129-502-131-512-8-31-8-57t8-37q7-10 23-10 24 0 65 14 40 15 84 62 48 52 76 125 33 79 33 215 0 109-37 196-45 98-103 156-67 64-149 98-81 37-172 37-118 0-219-49-100-47-177-133-75-87-118-203-41-118-41-256 0-131 43-238Q294 34 365-37q72-75 170-117 93-41 198-41 139 0 246 64 100 62 160 154 11 18 32 18h37q24 0 35-21 6-9 6-20 0-6-4-18-28-60-67-105-52-60-134-110-82-49-161-68-86-21-178-21-122 0-232 52-111 51-199 145-85 88-139 221-53 127-53 281zm393-64q0-40 8-71 4-27 25-64 21-31 43-45 24-16 63-16 69 0 131 53 67 54 93 154 12 42 24 88 6 33 12 55 1 5 2 12.5t2 12.5 1 8q2 8 2 20 0 76-41 123t-101 47q-44 0-94-37-49-37-86-92-40-54-61-123-23-71-23-125z"/><glyph unicode="A" horiz-adv-x="1257" d="M82 43q0 8 2 12l442 1352q10 27 39 27h131q29 0 39-27L1174 55q2-4 2-12 0-16-9-25-10-16-32-16h-66q-12 0-23 8.5T1030 31L899 436q0 2-4 2H365q-5 0-5-2L229 31q-5-12-16-20.5T190 2h-67q-20 0-33 16-8 11-8 25zm328 539q2-2 4-2h430l4 2v4l-215 678q0 4-4 4t-4-4L410 586v-4z"/><glyph unicode="B" horiz-adv-x="1091" d="M82 43v1350q0 17 12 29t29 12h457q83 0 147-27 63-25 113-72 49-49 69-108 25-64 25-129 0-107-45-193-44-80-131-135v-4q0-4 2-4 63-21 108-55 54-41 82-84 34-53 45-103 15-55 15-112 0-82-31-158-30-74-82-129-57-57-119-86Q713 2 637 2H123q-17 0-29 12T82 43zm143 109q0-5 4-5h351q46 0 102 17 47 17 90 49 41 33 68 82 24 49 24 119 0 54-22 106-20 51-66 90-44 38-106 62-61 22-140 22H229q-4 0-4-4V152zm0 688q0-4 4-4h318q62 0 104 18 44 17 80 53 31 27 51 76 19 49 19 94 0 93-53 152t-177 59H229q-4 0-4-4V840z"/><glyph unicode="C" horiz-adv-x="1222" d="M82 737q0 140 37 264 37 129 108 228 65 96 172 157 103 62 232 62 102 0 196-33 87-35 150-92 62-56 106-137 29-48 56-129v-8q0-15-6-27-13-16-33-16h-64q-29 0-39 26-47 135-131 205-89 74-235 74-90 0-166-45-72-46-129-127-58-83-84-185-31-108-31-219 0-164 35-270 41-124 94-191 56-71 133-110 73-39 150-39 81 0 143 33 61 30 111 86 49 55 78 121 24 56 36 110 3 13 14 22t25 9h62q20 0 31-14 8-16 8-23 0-6-2-10-14-77-52-158-40-89-106-162-62-68-154-110-82-39-194-39-128 0-227 51-107 52-175 147-67 90-110 236-39 130-39 313z"/><glyph unicode="D" horiz-adv-x="1187" d="M82 43v1350q0 17 12 29t29 12h434q126 0 229-56 104-60 172-155 65-87 109-228 39-131 39-274 0-167-39-285-39-125-115-227-71-96-172-152Q679 2 557 2H123q-17 0-29 12T82 43zm141 109q0-5 4-5h275q96 0 182 39 84 40 145 113 58 67 97 178 35 107 35 242 0 153-35 254-34 105-97 178-60 68-145 104-79 33-182 33H227q-4 0-4-4V152z"/><glyph unicode="E" horiz-adv-x="1048" d="M82 43v1350q0 17 12 29t29 12h772q17 0 29-12t12-29v-64q0-17-12-29t-29-12H229q-4 0-4-4V819q0-4 4-4h625q17 0 29-12t12-29v-63q0-17-12-29t-29-12H229q-4 0-4-4V152q0-5 4-5h697q17 0 29-12t12-29V43q0-17-12-29T926 2H123q-17 0-29 12T82 43z"/><glyph unicode="F" horiz-adv-x="997" d="M82 43v1350q0 17 12 29t29 12h751q17 0 29-12t12-29v-64q0-17-12-29t-29-12H229q-4 0-4-4V819q0-4 4-4h555q18 0 29.5-11.5T825 774v-63q0-18-11.5-29.5T784 670H229q-4 0-4-4V43q0-17-12-29T184 2h-61q-17 0-29 12T82 43z"/><glyph unicode="G" horiz-adv-x="1249" d="M82 721q0 136 37 266 36 123 108 232 69 103 172 165 101 64 232 64 114 0 196-33 95-38 152-90 59-53 106-139 37-72 54-129 2-4 2-13 0-14-8-22-10-16-31-16h-66q-27 0-37 26-47 136-131 205-92 74-237 74-93 0-166-47-72-46-129-127-54-82-84-189-31-112-31-227 0-146 33-252 35-111 90-186 56-74 133-115 76-39 160-39 72 0 143 41 73 45 127 111 55 67 90 157 26 70 33 113v65H694q-15 0-27 12t-12 29v58q0 17 11.5 28t27.5 11h432q17 0 29-11t12-28V41q0-17-12-28t-29-11h-59q-15 0-26 11t-11 28v201q-16-24-57-72-44-47-103-90-50-39-112-64Q700-8 641-8 516-8 408 49q-103 55-177 154-69 97-110 231-39 127-39 287z"/><glyph unicode="H" horiz-adv-x="1132" d="M82 43v1350q0 17 12 29t29 12h61q17 0 29-12t12-29V819q0-4 4-4h672q4 0 4 4v574q0 17 12 29t29 12h64q17 0 29-12t12-29V43q0-17-12-29t-29-12h-64q-17 0-29 12t-12 29v627q0 4-4 4H229q-4 0-4-4V43q0-17-12-29T184 2h-61q-17 0-29 12T82 43z"/><glyph unicode="I" horiz-adv-x="307" d="M82 43v1350q0 17 12 29t29 12h61q17 0 29-12t12-29V43q0-17-12-29T184 2h-61q-17 0-29 12T82 43z"/><glyph unicode="J" horiz-adv-x="864" d="M82 358v74q0 17 12 29t29 12h61q17 0 29-12t12-29v-55q0-62 19-111 20-43 49-76 34-34 67-47 40-14 74-14 30 0 64 12 33 11 67 41 37 37 53 78 21 50 21 121v1014q0 17 12 28t29 11h61q17 0 29-11t12-28V399q0-107-28-186-26-74-76-127-51-51-113-72-65-24-135-24-59 0-129 24-64 24-113 70-50 47-77 115-29 73-29 159z"/><glyph unicode="K" horiz-adv-x="1132" d="M82 43v1350q0 17 12 29t29 12h61q17 0 29-12t12-29V723q0-1 1-2t1-2h2q2 0 4 2l621 700q13 13 31 13h78q25 0 38-23 3-9 3-16 0-14-11-29L551 872l-2-2 2-2 493-802q7-10 7-21 0-8-7-22-10-21-34-21h-84q-24 0-35 21L453 750l-2 2h-2q-3 0-3-2L227 508l-2-2V43q0-17-12-29T184 2h-61q-17 0-29 12T82 43z"/><glyph unicode="L" horiz-adv-x="944" d="M82 43v1350q0 17 12 29t29 12h61q17 0 29-12t12-29V152q0-5 4-5h592q17 0 29-12t12-29V43q0-17-12-29T821 2H123q-17 0-29 12T82 43z"/><glyph unicode="M" horiz-adv-x="1335" d="M82 43v1350q0 17 12 29t29 12h110q29 0 39-27L659 242q0-4 5-4l4 4 393 1165q10 27 39 27h112q17 0 29-12t12-29V43q0-17-12-29t-29-12h-61q-17 0-29 12t-12 29v1081l-4 4q-4 0-4-4L745 31Q734 2 707 2h-70q-28 0-39 29L233 1126q0 2-4 2t-4-4V43q0-17-12-29T184 2h-61q-17 0-29 12T82 43z"/><glyph unicode="N" horiz-adv-x="1132" d="M82 43v1350q0 17 12 29t29 12h123q24 0 35-21L901 231l2-2h2q2 0 2 4v1160q0 17 12 29t29 12h62q18 0 29.5-11.5t11.5-29.5V43q0-18-11.5-29.5T1010 2H889q-24 0-37 23L233 1206q-2 2-4 2l-4-4V43q0-17-12-29T184 2h-61q-17 0-29 12T82 43z"/><glyph unicode="O" horiz-adv-x="1277" d="M82 717q0 163 37 293 39 142 106 231 73 97 176 152 100 53 238 53t238-53q102-56 174-152 70-94 108-231 37-130 37-293 0-165-37-295-38-134-108-232-72-96-174-149-104-55-238-55T401 41Q298 93 225 190q-67 94-106 232-37 130-37 295zm139 0q0-131 33-250 29-108 88-186 55-76 133-117 74-41 164-41 87 0 164 41 72 40 131 117 55 72 90 186 33 119 33 250 0 128-33 250-36 115-90 186-55 73-131 115-77 41-164 41-90 0-164-41-77-41-133-115-60-83-88-186-33-122-33-250z"/><glyph unicode="P" horiz-adv-x="1034" d="M82 43v1350q0 17 12 29t29 12h442q99 0 168-35 68-33 121-96 49-55 74-132 24-73 24-147 0-78-24-152-29-78-76-131-50-59-121-94-70-33-166-33H229q-4 0-4-4V43q0-17-12-29T184 2h-61q-17 0-29 12T82 43zm143 717q0-4 4-4h336q51 0 92 20 45 20 78 58 36 39 53 86 21 52 21 106 0 58-18 104-13 35-52 84-35 35-77 54-48 20-97 20H229q-4 0-4-4V760z"/><glyph unicode="Q" horiz-adv-x="1361" d="M82 717q0 163 37 293 39 142 106 231 73 97 176 152 100 53 238 53t238-53q102-56 174-152 70-94 108-231 37-130 37-293 0-165-37-295-38-134-108-232-4-5-12.5-15t-12.5-15l244-242q10-10 10-31 0-18-10-28l-45-43q-13-13-29-13t-29 13L918 66q-18-15-41-25-104-55-238-55T401 41Q298 93 225 190q-67 94-106 232-37 130-37 295zm139 0q0-131 33-250 29-108 88-186 55-76 133-117 74-41 164-41 87 0 164 41 72 40 131 117 55 72 90 186 33 119 33 250 0 128-33 250-36 115-90 186-55 73-131 115-77 41-164 41-90 0-164-41-77-41-133-115-60-83-88-186-33-122-33-250z"/><glyph unicode="R" horiz-adv-x="1077" d="M82 43v1350q0 17 12 29t29 12h481q94 0 166-35 74-37 123-96 49-55 74-132 24-73 24-147 0-110-45-201-44-90-121-141l-2-4q0-4 4-4 40-16 66-39 29-29 51-68 20-44 25-86 6-43 6-90V174q0-40 10-88 1-5 4-15.5t4-15.5q2-4 2-12 0-13-6-25-13-16-35-16h-65q-29 0-39 27-9 27-12 57-4 31-4 80v227q0 39-15 80-11 36-39 72-24 31-69 49-48 20-107 20H229q-4 0-4-4V43q0-17-12-29T184 2h-61q-17 0-29 12T82 43zm143 717q0-4 4-4h375q51 0 92 20 36 16 78 58 36 39 53 86 21 52 21 106 0 55-19 104-17 47-51 84-31 35-76 54-44 20-98 20H229q-4 0-4-4V760z"/><glyph unicode="S" horiz-adv-x="1058" d="M82 424q0 21 10 31 16 12 29 12h63q15 0 26.5-10t12.5-25q9-56 27-102 25-64 65-107 38-40 99-67 58-25 125-25 53 0 112 16 56 12 99 46 41 30 65 83 25 55 25 125 0 55-27 101-28 45-70 71-61 39-100 54-66 27-115 43-12 5-65 23t-82 30q-68 28-131 78-60 45-98 114-37 70-37 172 0 87 30 152 31 67 84 111 55 46 129 67 70 23 164 23 117 0 197-39 85-43 129-98 49-62 70-132 14-48 20-100v-8q0-15-8-23-12-12-31-12h-61q-32 0-39 33-4 30-25 88-26 54-61 86-43 37-88 53-53 17-103 17-31 0-98-13-43-10-88-37-42-31-60-67-24-40-24-101t27-104q23-39 71-72 40-32 101-55 29-12 120-43 23-9 73-27.5t73-27.5q73-30 131-76 58-49 94-113 35-68 35-168 0-95-33-176-36-79-92-127-66-56-139-78Q636-6 539-6q-81 0-168 33-84 35-146 94-63 60-104 147-33 78-39 156z"/><glyph unicode="T" horiz-adv-x="1146" d="M82 1329v64q0 17 12 29t29 12h901q17 0 29-12t12-29v-64q0-17-12-29t-29-12H649q-4 0-4-4V43q0-17-12-29T604 2h-61q-17 0-29 12t-12 29v1241q0 4-4 4H123q-17 0-29 12t-12 29z"/><glyph unicode="U" horiz-adv-x="1112" d="M82 512v881q0 17 12 29t29 12h61q17 0 29-12t12-29V502q0-82 29-154 27-70 74-117 39-42 102-71 62-27 115-27 59 0 123 25 61 21 110 67 46 43 78 115 31 70 31 158v895q0 17 12 29t29 12h61q17 0 29-12t12-29V508q0-123-43-221-44-96-113-162-64-61-155-98Q632-8 545-8q-88 0-164 33-84 35-150 98-64 64-108 164-41 96-41 225z"/><glyph unicode="V" horiz-adv-x="1169" d="M82 1395q0 14 8 22 14 17 33 17h72q28 0 38-29L580 231q2-2 4-2 4 0 4 2l348 1174q10 29 39 29h72q18 0 32-17 8-16 8-24 0-7-2-11L684 31q-3-12-14.5-20.5T645 2H530q-13 0-24 8.5T492 31L84 1382q-2 4-2 13z"/><glyph unicode="W" horiz-adv-x="1695" d="M82 1384v7q0 12 8 28 12 15 33 15h65q14 0 25-9t14-22L467 311l4-4q4 0 4 4l297 1094q11 29 39 29h74q28 0 39-29l293-1083q0-3 4-3t4 3q57 260 121 538 24 105 68.5 304.5T1468 1403q3 13 14 22t25 9h66q21 0 33-15 8-16 8-24 0-7-2-11L1309 35q-3-15-14-24t-25-9h-82q-14 0-25 9t-14 22L852 1161q-2 2-4 2l-4-2L547 33q-3-13-14-22t-25-9h-82q-14 0-25 9t-14 24z"/><glyph unicode="X" horiz-adv-x="1083" d="M82 43q0 11 6 20l373 656v4L90 1374q-4 12-4 21 0 6 4 18 12 21 37 21h66q25 0 34-21l310-547 4-2 4 2 311 547q12 21 37 21h68q24 0 36-21 4-6 4-20 0-13-4-21L625 721l-2-2 2-2q35-62 102-180.5T825 365q89-160 172-302 4-12 4-18 0-13-6-22-11-21-34-21h-68q-23 0-37 21L547 571q-2 2-4 2t-4-2L227 23Q216 2 193 2h-70Q98 2 88 23q-6 9-6 20z"/><glyph unicode="Y" horiz-adv-x="1167" d="M82 1393q0 13 6 22 10 19 35 19h72q22 0 36-21l353-684q0-2 4-2 2 0 2 2l346 682q10 23 37 23h71q22 0 35-19 6-9 6-22 0-10-6-19L655 578V43q0-17-12-29T614 2h-61q-17 0-29 12t-12 29v535L86 1374q-4 12-4 19z"/><glyph unicode="Z" horiz-adv-x="1126" d="M82 43v102q0 15 8 23l791 1114 2 2q0 2-2 2l-2 2H123q-17 0-29 12t-12 29v64q0 17 12 29t29 12h881q17 0 28.5-12t11.5-29v-127q0-14-8-25L258 156v-6q2-3 4-3h742q17 0 28.5-12t11.5-29V43q0-17-11.5-29T1004 2H123q-17 0-29 12T82 43z"/><glyph unicode="[" horiz-adv-x="507" d="M82-168v1567q0 17 12 29t29 12h262q17 0 29-12t12-29v-39q0-17-12-29t-29-12H221q-4 0-4-4V-84q0-4 4-4h164q17 0 29-12t12-29v-39q0-17-12-29t-29-12H123q-17 0-29 12t-12 29z"/><glyph unicode="\" horiz-adv-x="759" d="M82 1432q0 14 8 22 13 16 33 16h57q14 0 25-8t14-20L678-184v-9q0-17-8-28-10-17-31-17h-64q-30 0-40 31L84 1419q-2 4-2 13z"/><glyph unicode="]" horiz-adv-x="507" d="M82-129q0 17 12 29t29 12h164q4 0 4 4v1399q0 4-4 4H123q-17 0-29 12t-12 29v39q0 17 12 29t29 12h262q17 0 29-12t12-29V-168q0-17-12-29t-29-12H123q-17 0-29 12t-12 29v39z"/><glyph unicode="^" horiz-adv-x="1007" d="M82 676q0 10 2 14l348 733q11 25 39 25h66q25 0 36-25l349-733q4-8 4-14 0-11-8-23-9-18-33-18h-49q-26 0-39 27l-291 616q0 2-4 2-2 0-2-2L207 662q-3-12-14-19.5t-23-7.5h-47q-23 0-35 18-6 9-6 23z"/><glyph unicode="_" horiz-adv-x="1046" d="M82-133q0 17 12 29t29 12h801q17 0 29-12t12-29v-43q0-18-11.5-29.5T924-217H123q-18 0-29.5 11.5T82-176v43z"/><glyph unicode="`" horiz-adv-x="446" d="M82 1393q0 6 4 18 13 23 37 23h80q25 0 35-23l120-219q7-11 7-21 0-9-7-20-10-21-34-21h-33q-19 0-33 17L90 1368q-8 8-8 25z"/><glyph unicode="a" d="M82 514q0 112 24 207 20 91 72 168 46 70 119 112 70 43 164 43 33 0 71-12 29-10 70-35 43-30 66-53 29-29 41-45l2-2h2q2 2 2 4v103q0 17 12 28.5t29 11.5h61q17 0 29-11.5t12-28.5V39q0-17-12-28T817 0h-61q-17 0-29 11t-12 28v96q0 4-2 4h-2q-2 0-2-2-44-68-103-106-67-43-141-43-100 0-166 41-73 42-119 112-49 70-74 168-24 95-24 205zm143 0q0-72 17-152 16-72 49-122 31-54 76-82 48-31 104-31t104 31q45 28 76 82 33 57 47 122 17 67 17 152v16q0 78-19 146-20 74-47 119-28 49-76 79-45 29-102 29t-102-31q-50-32-78-81-34-51-49-123-17-83-17-154z"/><glyph unicode="b" d="M82 39v1350q0 17 12 29t29 12h61q17 0 29-12t12-29V901q0-4 4-4 2 0 4 2 42 57 105 98 74 47 139 47 91 0 166-43 74-44 119-112 47-70 72-168 24-95 24-207 0-110-24-205-25-98-74-168-46-70-119-112-69-41-166-41-74 0-141 43-56 36-101 106-2 2-4 2l-4-4V39q0-17-12-28T184 0h-61q-17 0-29 11T82 39zm143 475q0-72 17-152 14-65 47-122 29-50 78-82 50-31 102-31 56 0 104 31 47 27 78 82 33 57 47 122 17 67 17 152t-17 154q-14 65-47 123-28 49-78 81-48 31-104 31-57 0-102-29-37-23-74-79-35-58-49-117-19-86-19-148v-16z"/><glyph unicode="c" horiz-adv-x="935" d="M82 535q0 100 29 198 26 89 82 164 54 69 126 109 74 38 168 38 79 0 144-24 61-23 108-70t76-106q26-58 33-86v-8q0-16-8-27-13-16-33-16h-68q-14 0-25 8t-14 20q-27 87-75 127-53 41-140 41-65 0-110-29-50-32-82-81-36-51-51-117-19-68-19-141 0-72 19-150 15-60 51-131 33-55 82-92 50-35 106-35 49 0 86 18 35 17 64 54 30 33 47 75 15 38 20 68 3 14 14.5 22.5T739 373h74q16 0 31-15 10-13 10-26v-6Q827 176 739 88 639-12 475-12q-103 0-176 49-78 52-123 127-47 72-72 176-22 99-22 195z"/><glyph unicode="d" d="M82 514q0 112 24 207 20 91 72 168 46 70 119 112 70 43 164 43 33 0 71-12 29-10 70-35 43-30 66-53 29-29 41-45l2-2h2q2 2 2 4v488q0 17 12 29t29 12h61q17 0 29-12t12-29V39q0-17-12-28T817 0h-61q-17 0-29 11t-12 28v96q0 4-2 4h-2q-2 0-2-2-44-68-103-106-67-43-141-43-100 0-166 41-73 42-119 112-49 70-74 168-24 95-24 205zm143 0q0-72 17-152 16-72 49-122 31-54 76-82 48-31 104-31t104 31q45 28 76 82 33 57 47 122 17 67 17 152v16q0 78-19 146-20 74-47 119-28 49-76 79-45 29-102 29t-102-31q-50-32-78-81-34-51-49-123-17-83-17-154z"/><glyph unicode="e" horiz-adv-x="991" d="M82 532q0 97 29 195 29 88 84 162 56 71 133 112 76 43 174 43t170-38q74-38 127-103 57-73 82-158 28-92 28-196v-23q0-17-12-29t-29-12H233q-2-2-2-4 3-58 23-127 22-67 57-116 43-56 86-80 51-31 107-31 99 0 160 49 60 50 88 127 10 27 39 27h49q18 0 32-17 9-9 9-22 0-8-2-12-6-33-41-97-38-63-88-104-55-45-115-66-59-22-131-22-98 0-174 43-80 48-133 119-56 74-86 174-29 102-29 206zm149 82q0-2 2-4h527q0 1 1 2t1 2q-3 56-21 109-19 60-53 96-40 43-84 62-45 22-110 22-56 0-103-24-42-20-84-66-33-39-55-94-18-53-21-105z"/><glyph unicode="f" horiz-adv-x="634" d="M82 936v59q0 17 12 29t29 12h110q5 0 5 4v228q0 86 53 145 54 57 145 57 23 0 56-10 23-6 40-18 21-10 21-35v-45q0-21-16-31-8-8-25-8h-10q-16 4-23 4-43 0-71-22-27-21-27-66v-199q0-4 4-4h115q17 0 29-12t12-29v-59q0-17-12-29t-29-12H385q-4 0-4-4V37q0-17-12-29T340-4h-61q-17 0-29 12t-12 29v854q0 4-5 4H123q-17 0-29 12t-12 29z"/><glyph unicode="g" horiz-adv-x="960" d="M82 516q0 99 27 205 28 97 79 166 54 73 125 112 71 41 162 41 67 0 135-32 60-28 119-109l2-2h2q2 2 2 4v94q0 17 12 29t29 12h62q17 0 29-12t12-29V-12q0-113-31-187-29-77-88-133-61-57-125-82-68-26-143-26-130 0-228 73-82 61-129 185-4 8-4 14 0 9 8 25 10 16 33 16h59q27 0 37-23 39-76 84-110 59-41 140-41 50 0 94 20 37 15 78 60 33 38 53 88 18 52 18 113v147q0 2-2 4h-2l-2-2Q684 63 627 27q-68-41-140-41-96 0-170 41-75 45-127 114-55 77-81 168-27 106-27 207zm141 0q0-69 21-151 23-78 57-125 36-55 84-84 51-31 109-31 53 0 100 29 48 31 78 84 34 59 47 122 16 63 16 152v16q0 78-18 146-17 62-49 119-27 50-74 79-45 29-100 29-58 0-109-31-45-25-86-82-34-52-55-122-21-79-21-150z"/><glyph unicode="h" horiz-adv-x="903" d="M82 37v1352q0 17 12 29t29 12h61q17 0 29-12t12-29V901q2-2 4-2v-2q1 0 2 1t2 1q53 77 121 107 75 34 166 34 61 0 121-24 58-25 96-66 41-41 62-96 22-58 22-123V37q0-17-12-29T780-4h-59q-17 0-29 12t-12 29v668q0 50-16 90-20 41-43 59-22 22-60 35-38 10-72 10-45 0-94-22-44-20-84-60-39-36-61-88-25-55-25-111V37q0-17-12-29T184-4h-61Q106-4 94 8T82 37z"/><glyph unicode="i" horiz-adv-x="305" d="M82 37v960q0 17 12 29t29 12h59q17 0 29-12t12-29V37q0-17-12-29T182-4h-59Q106-4 94 8T82 37zm0 1249v103q0 17 12 29t29 12h59q17 0 29-12t12-29v-103q0-17-12-29t-29-12h-59q-17 0-29 12t-12 29z"/><glyph unicode="j" horiz-adv-x="454" d="M82-346q0 20 14 31 10 10 27 10h6q1 0 3-1t3-1q51 0 72 43 22 49 22 104V997q0 17 12 29t29 12h62q17 0 29-12t12-29V-188q0-130-62-195-63-66-151-66-14 0-39 7-1 0-4.5 1t-5.5 1q-29 11-29 39v55zm147 1632v103q0 17 12 29t29 12h62q17 0 29-12t12-29v-103q0-17-12-29t-29-12h-62q-17 0-29 12t-12 29z"/><glyph unicode="k" horiz-adv-x="884" d="M82 37v1352q0 17 12 29t29 12h61q17 0 29-12t12-29V567l2-2h6l412 459q12 12 31 12h67q27 0 37-24 4-12 4-17 0-13-10-26L489 645v-4L799 57q4-6 4-20 0-15-4-21-13-20-35-20h-76q-22 0-35 22L389 522q0 2-2 2h-4L227 348l-2-2V37q0-17-12-29T184-4h-61Q106-4 94 8T82 37z"/><glyph unicode="l" horiz-adv-x="305" d="M82 37v1352q0 17 12 29t29 12h59q17 0 29-12t12-29V37q0-17-12-29T182-4h-59Q106-4 94 8T82 37z"/><glyph unicode="m" horiz-adv-x="1413" d="M82 37v944q0 17 12 29t29 12h59q17 0 29-12t12-29v-94q0-4 4-4t4 2q51 74 123 114 80 41 152 41 69 0 131-41 54-38 106-133 2-2 5-2 2 0 4 2 54 91 129 131 80 45 161 45 62 0 117-24 51-20 90-66 42-46 62-100 20-53 20-123V37q0-17-12-29t-29-12h-59q-17 0-29 12t-12 29v649q0 62-16 105-14 38-41 65-28 25-56 33-38 10-63 10-41 0-82-20-43-22-76-58-34-37-55-86-21-58-21-108V37q0-17-12-29T739-4h-59q-17 0-29 12t-12 29v649q0 62-16 105-14 38-41 65-29 26-54 33-30 10-55 10-51 0-98-27-40-25-78-69-31-36-53-92-21-58-21-95V37q0-17-12-29T182-4h-59Q106-4 94 8T82 37z"/><glyph unicode="n" horiz-adv-x="901" d="M82 37v958q0 17 12 29t29 12h61q17 0 29-12t12-29V889q0-4 4-4h4q65 80 140 114 84 41 170 41 130 0 205-84 71-83 71-225V37q0-17-12-29T778-4h-59q-17 0-29 12t-12 29v676q0 102-43 145-44 41-119 41-60 0-115-25-53-24-92-63-37-40-61-92-23-57-23-107V37q0-17-12-29T184-4h-61Q106-4 94 8T82 37z"/><glyph unicode="o" horiz-adv-x="999" d="M82 512q0 99 27 205 27 96 81 168t129 112q79 43 179 43 101 0 178-41 81-44 133-114 55-74 82-168t27-205q0-108-27-203-27-94-82-168-49-66-133-112-77-41-178-41-104 0-179 41-75 40-129 112t-81 168Q82 415 82 512zm141 0q0-71 21-150 23-76 53-122 41-57 86-82 54-31 115-31 60 0 114 31 47 24 88 82 41 62 56 122 18 67 18 150 0 82-18 152-15 60-56 122-41 57-88 84-54 31-114 31-61 0-115-31-46-28-86-84-36-54-53-122-21-70-21-152z"/><glyph unicode="p" horiz-adv-x="966" d="M82-365V995q0 17 12 29t29 12h59q17 0 29-12t12-29V895l4-4 4 2q45 69 111 106 74 45 150 45 94 0 167-40 73-42 123-113 47-67 76-168 27-95 27-205 0-107-25-205-29-101-76-168-55-73-122-112-73-43-168-43-73 0-150 45-69 40-113 104-2 2-4 2v-2l-4-2v-502q0-17-12-29t-29-12h-59q-17 0-29 12t-12 29zm141 867q0-72 23-146 17-65 55-118 36-52 80-80 50-29 104-29 57 0 105 31 45 27 82 84 32 49 51 123 18 70 18 151 0 82-18 152-20 76-51 123-34 52-82 81-53 31-105 31-55 0-106-31-45-24-82-81-34-52-53-123-21-70-21-152v-16z"/><glyph unicode="q" horiz-adv-x="966" d="M82 518q0 110 27 205 26 102 75 168 52 74 123 113 70 40 168 40 76 0 150-45 63-37 108-106 1 0 2-1t2-1h2q0 1 1 2t1 2v100q0 17 12 29t29 12h62q17 0 29-12t12-29V-365q0-17-12-29t-29-12h-62q-17 0-29 12t-12 29v502l-2 2-2 2q-1 0-2-1t-2-1Q686 71 621 35q-77-45-150-45-95 0-168 43-71 41-121 112-48 68-73 168-27 95-27 205zm141 0q0-77 19-151 16-61 51-123 35-54 82-84 48-31 104-31 59 0 107 29 44 26 82 80 34 48 53 118 20 75 20 146v16q0 92-18 152-20 73-55 123-34 52-82 81-53 31-107 31-56 0-104-31-47-27-82-81-34-60-51-123-19-74-19-152z"/><glyph unicode="r" horiz-adv-x="595" d="M82 37v958q0 17 12 29t29 12h59q17 0 29-12t12-31l-4-96q2-2 4-2v-2l4 2q83 145 222 145 20 0 32-2v-2q14-1 23.5-13t9.5-26v-77q0-20-14-31-13-10-27-10-1 0-3.5 1t-4.5 1q-8 2-21 2-53 0-92-23-39-19-71-59-33-46-43-84-15-49-15-103V37q0-17-12-29T182-4h-59Q106-4 94 8T82 37z"/><glyph unicode="s" horiz-adv-x="882" d="M82 283v6q0 14 10 24 15 15 31 15h65q15 0 27.5-11t13.5-26q9-81 58-121 57-45 147-45 36 0 76 6 35 8 72 27 31 15 53 47 22 31 22 76 0 54-39 90-32 30-100 61-65 29-131 51-73 25-131 62-62 37-102 90-41 53-41 139 0 71 26 119 27 53 72 84 43 32 102 47 62 16 121 16 65 0 131-16 63-16 107-49 42-31 71-88 21-53 25-82v-6q0-17-10-27-14-14-31-14h-2q-5 0-15 1t-14 1h-32q-14 0-25 9t-14 22q-15 56-60 79-57 31-131 31-87 0-133-37-45-36-45-90 0-53 39-86 37-31 100-59 14-6 59-26t72-30q70-24 131-61 60-34 103-86 41-49 41-129 0-83-31-143-24-53-80-95-48-37-117-55-69-16-139-16-65 0-133 20-67 22-113 62-47 41-77 106-23 52-29 107z"/><glyph unicode="t" horiz-adv-x="612" d="M82 940v55q0 17 12 29t29 12h96q4 0 4 4v244q0 17 12 29t29 12h62q17 0 29-12t12-29v-244q0-4 4-4h96q17 0 29-12t12-29v-55q0-17-12-29t-29-12h-96q-4 0-4-4V240q0-67 26-90 28-25 70-25 14 0 22 2h4q14 0 27-10 14-14 14-31V35q0-13-9-24.5T498-4q-48-10-88-10-32 0-70 10-36 12-61 35-26 26-41 63-15 40-15 92v709q0 4-4 4h-96q-17 0-29 12t-12 29z"/><glyph unicode="u" horiz-adv-x="901" d="M82 305v694q0 17 12 29t29 12h61q17 0 29-12t12-29V324q0-104 43-144 43-43 119-43 55 0 113 25 53 24 92 63t63 92q23 57 23 107v575q0 17 12 29t29 12h59q17 0 29-12t12-29V55q0-17-12-29t-29-12h-59q-17 0-29 12t-12 29v95l-4 4q-4 0-4-2-64-76-140-115Q446-4 358-4 231-4 156 80q-37 40-56 98-18 56-18 127z"/><glyph unicode="v" horiz-adv-x="962" d="M82 993q0 17 8 25 13 16 33 16h67q28 0 39-28l246-801q0-2 4-2 2 0 4 2l252 801q11 28 39 28h66q19 0 32-16 9-9 9-25 0-8-2-12L567 25Q556-4 528-4h-92q-28 0-39 29L84 981q-2 4-2 12z"/><glyph unicode="w" horiz-adv-x="1378" d="M82 995q0 15 8 23 13 16 33 16h61q14 0 25-8.5t14-21.5l183-783q0-4 4-4l4 4 188 783q3 13 15 21.5t26 8.5h92q14 0 25-8.5t14-21.5l187-783q0-4 4-4l4 4 186 783q3 13 14 21.5t25 8.5h61q20 0 33-16 8-16 8-25 0-6-2-10L1053 27q-3-12-14.5-21.5T1014-4h-86q-13 0-24.5 9.5T889 27L692 827q0 4-4 4l-4-4L489 27q-3-13-14.5-22T449-4h-82q-13 0-24.5 9T326 27L84 983q-2 4-2 12z"/><glyph unicode="x" horiz-adv-x="907" d="M82 39q0 11 6 20l279 447 2 2q0 2-2 2L90 973q-6 9-6 22 0 7 4 19 13 20 37 20h74q25 0 34-18l218-361q0-2 4-2 2 0 2 2l215 361q14 18 35 18h77q25 0 35-20 6-9 6-19 0-13-6-22L541 510v-4L819 59q6-9 6-22 0-10-6-19-9-22-35-22h-77q-22 0-35 20L457 365l-2 2-4-2L233 16Q223-4 199-4h-76Q97-4 88 18q-6 9-6 21z"/><glyph unicode="y" horiz-adv-x="946" d="M82 993q0 17 8 25 13 16 33 16h67q14 0 26-8t15-20l242-791q0-2 4-2 2 0 4 2l240 791q3 12 14 20t25 8h63q23 0 33-16 8-8 8-25 0-8-2-12Q594 129 494-195q-9-29-9-30-16-53-43-103-20-36-53-69-30-27-57-39-33-13-60-13-21 0-49 7-6 0-22 4-31 10-31 39v53q0 20 16 33 8 8 25 8h10q18-6 35-6 20 0 39 16 20 17 33 39 11 23 22 51 10 23 17 47 41 144 41 146v2L84 981q-2 4-2 12z"/><glyph unicode="z" horiz-adv-x="901" d="M82 37v82q0 16 8 24l528 731 3 3q-1 2-3 2l-2 2H123q-17 0-29 12t-12 29v71q0 17 12 29t29 12h655q17 0 29-12t12-29v-94q0-14-8-25L274 147v-4q3-2 5-2h499q17 0 29-12t12-29V37q0-17-12-29T778-4H123Q106-4 94 8T82 37z"/><glyph unicode="{" horiz-adv-x="593" d="M82 600v37q0 15 10 26.5t25 14.5q60 6 86 45 26 35 26 100 0 56-14 170l-2 6q-12 118-12 168 0 140 75 209 70 64 195 64 16 0 29-10 12-12 12-31v-39q0-17-11-29t-28-12q-73-3-106-45t-33-127q0-19 10-117 0-9 4-29v-6q14-114 14-151 0-98-36-154-26-45-84-67l-2-2q0-5 2-5 55-21 84-69 36-53 36-154 0-36-14-160-1-4-2-13.5t-2-14.5q-10-97-10-119 0-85 35-129 33-42 104-45 17 0 28-12t11-29v-39q0-17-12-29t-29-12h-2q-123 0-190 64-78 72-78 221 0 77 16 170 0 15 4 39 8 86 8 127 0 62-24 100-27 41-88 47-15 3-25 14.5T82 600z"/><glyph unicode="|" horiz-adv-x="288" d="M82-213v1806q0 17 12 29t29 12h43q17 0 29-12t12-29V-213q0-17-12-29t-29-12h-43q-17 0-29 12t-12 29z"/><glyph unicode="}" horiz-adv-x="593" d="M82-129q0 17 11 29t28 12q71 3 104 45 35 44 35 129 0 22-10 119-1 5-2 14.5t-2 13.5q-15 133-15 160 0 89 31 146 28 51 90 77 2 0 2 5 0 2-2 2-49 18-76 55-45 60-45 166 0 59 15 151v6q1 5 2 15t2 14q10 98 10 117 0 79-33 127-33 42-106 45-17 0-28 12t-11 29v39q0 19 12 31 13 10 29 10 124 0 194-64 76-70 76-209 0-65-14-168v-6q-14-114-14-170 0-68 24-100 26-39 88-45 15-3 25-14.5t10-26.5v-37q0-15-10-26.5T477 559q-59-6-86-47-26-37-26-100 0-64 14-160v-6q14-114 14-170 0-149-78-221-67-64-190-64h-2q-17 0-29 12t-12 29v39z"/><glyph unicode="~" horiz-adv-x="903" d="M82 532q3 46 14 80 12 51 41 95 28 42 70 65 49 27 98 27 37 0 80-15 38-15 57-32 24-21 41-43 18-24 33-45 28-39 49-60 15-18 47-18 15 0 35 10 25 21 33 35 16 26 25 55 7 24 10 49 1 15 13.5 26t27.5 11h24q17 0 31-14 10-10 10-31-9-115-61-182-63-78-158-78-36 0-63 12-19 7-47 27-22 15-37 37-18 25-27 41h-2q-21 35-53 71-27 27-68 27-29 0-51-16-26-19-37-43-15-24-22-58-6-22-9-41-1-15-13.5-25T145 489h-22q-18 0-31 13-10 13-10 30z"/><glyph unicode="£" horiz-adv-x="972" d="M82 41v47q0 24 20 37 90 60 140 145 59 100 59 219 0 91-8 144 0 4-4 4H137q-19 0-32 13t-13 32v57q0 19 13 31t32 12h129q4 0 4 2v4q-18 148-18 226 0 191 106 309 102 117 269 117 112 0 184-39 25-11 25-37 0-8-2-12l-19-68q-3-19-20-29-12-4-21-4-4 0-16 4-64 23-131 23-104 0-158-76-49-70-49-190 0-108 20-226 0-4 4-4h232q19 0 31-12t12-31v-57q0-19-12-32t-31-13H459q0-1-1-2t-1-2q6-105 6-107 0-69-14-129-26-125-123-225-2 0-2-4 2-2 4-2h520q18 0 30.5-12.5T891 123V41q0-18-12.5-30.5T848-2H125q-18 0-30.5 12.5T82 41z"/><glyph unicode="¥" horiz-adv-x="1167" d="M82 1393q0 11 6 20 10 21 35 21h72q23 0 36-23l353-682q0-2 4-2 2 0 2 2l346 682q10 23 37 23h71q21 0 35-21 6-9 6-20 0-10-6-19L670 604h266q19 0 31-12t12-31v-29q0-19-12-31t-31-12H655v-77h281q19 0 31-12t12-31v-29q0-19-12-31t-31-12H655V43q0-17-12-29T614 2h-61q-17 0-29 12t-12 29v254H219q-18 0-30.5 12.5T176 340v29q0 18 12.5 30.5T219 412h293v77H219q-18 0-30.5 12.5T176 532v29q0 18 12.5 30.5T219 604h279L86 1374q-4 12-4 19z"/><glyph unicode="¨" horiz-adv-x="581" d="M82 1245v103q0 17 12 29t29 12h59q17 0 29-12t12-29v-103q0-17-12-29t-29-12h-59q-17 0-29 12t-12 29zm276 0v103q0 17 12 29t29 12h60q17 0 29-12t12-29v-103q0-17-12-29t-29-12h-60q-17 0-29 12t-12 29z"/><glyph unicode="«" horiz-adv-x="806" d="M82 522q0 13 6 19l219 311q10 16 35 16h41q24 0 37-20 4-8 4-17 0-11-6-20L213 524v-4l207-289q6-9 6-18 0-6-4-18-14-21-37-21h-43q-24 0-35 19L88 502q-6 9-6 20zm301 0q0 13 6 19l217 311q13 16 35 16h43q25 0 35-20 6-6 6-19 0-9-6-18L514 524v-4l205-289q6-6 6-18 0-9-6-18-11-21-35-21h-43q-20 0-35 19L389 502q-6 9-6 20z"/><glyph unicode="­" horiz-adv-x="862" d="M82 549v43q0 17 12 29t29 12h616q17 0 29-12t12-29v-43q0-18-11.5-29.5T739 508H123q-18 0-29.5 11.5T82 549z"/><glyph unicode="´" horiz-adv-x="446" d="M82 1174q0 6 4 18l121 219q13 23 37 23h80q23 0 36-23 5-15 5-18 0-7-9-25l-168-221q-14-17-32-17h-33q-25 0-35 21-6 9-6 23z"/><glyph unicode="»" horiz-adv-x="806" d="M82 213q0 9 6 18l205 289v4L88 811q-6 9-6 20 0 9 4 17 13 20 37 20h43q22 0 35-16l217-311q6-6 6-19 0-11-6-20L201 193q-15-19-35-19h-43q-23 0-37 21-4 12-4 18zm299 618q0 9 4 17 13 20 37 20h43q22 0 35-16l219-311q6-6 6-19 0-11-6-20L500 193q-15-19-35-19h-41q-23 0-37 21-4 12-4 18 0 9 6 18l205 289v4L387 811q-6 9-6 20z"/><glyph unicode="À" horiz-adv-x="1257" d="M82 43q0 8 2 12l442 1352q10 27 39 27h131q29 0 39-27L1174 55q2-4 2-12 0-16-9-25-10-16-32-16h-66q-12 0-23 8.5T1030 31L899 436q0 2-4 2H365q-5 0-5-2L229 31q-5-12-16-20.5T190 2h-67q-20 0-33 16-8 11-8 25zm315 1735q0 6 4 18 13 23 37 23h80q25 0 35-23l121-219q6-9 6-21 0-11-6-20-10-20-35-20h-33q-20 0-33 16l-167 221q-9 9-9 25zm13-1196q2-2 4-2h430l4 2v4l-215 678q0 4-4 4t-4-4L410 586v-4z"/><glyph unicode="Á" horiz-adv-x="1257" d="M82 43q0 8 2 12l442 1352q10 27 39 27h131q29 0 39-27L1174 55q2-4 2-12 0-16-9-25-10-16-32-16h-66q-12 0-23 8.5T1030 31L899 436q0 2-4 2H365q-5 0-5-2L229 31q-5-12-16-20.5T190 2h-67q-20 0-33 16-8 11-8 25zm328 539q2-2 4-2h430l4 2v4l-215 678q0 4-4 4t-4-4L410 586v-4zm172 956q0 6 4 18l121 220q13 22 36 22h80q24 0 37-22 4-12 4-19 0-8-8-24l-168-222q-13-16-33-16h-32q-25 0-35 21-6 9-6 22z"/><glyph unicode="Â" horiz-adv-x="1257" d="M82 43q0 8 2 12l442 1352q10 27 39 27h131q29 0 39-27L1174 55q2-4 2-12 0-16-9-25-10-16-32-16h-66q-12 0-23 8.5T1030 31L899 436q0 2-4 2H365q-5 0-5-2L229 31q-5-12-16-20.5T190 2h-67q-20 0-33 16-8 11-8 25zm328 539q2-2 4-2h430l4 2v4l-215 678q0 4-4 4t-4-4L410 586v-4zm20 952q0 11 6 20l129 222q10 20 35 20h70q25 0 35-20l133-222q4-6 4-20 0-13-4-21-13-20-37-20h-35q-24 0-37 23l-90 163q0 2-4 2-2 0-2-2l-90-163q-13-23-37-23h-35q-25 0-35 20-6 9-6 21z"/><glyph unicode="Ã" horiz-adv-x="1257" d="M82 43q0 8 2 12l442 1352q10 27 39 27h131q29 0 39-27L1174 55q2-4 2-12 0-16-9-25-10-16-32-16h-66q-12 0-23 8.5T1030 31L899 436q0 2-4 2H365q-5 0-5-2L229 31q-5-12-16-20.5T190 2h-67q-20 0-33 16-8 11-8 25zm301 1493q6 99 51 147 33 33 78 33 38 0 104-41 2-1 5.5-3t5.5-3l6-4q49-29 69-29t29 15q9 12 12 37 3 15 14.5 24.5t26.5 9.5h15q16 0 30-14 11-7 11-22v-7q-3-99-47-143-31-31-80-31-41 0-115 45l-12 6q-45 29-64 29t-30-22q-2-5-11-35-1-15-13-25t-26-10h-18q-19 0-31 12-10 13-10 31zm27-954q2-2 4-2h430l4 2v4l-215 678q0 4-4 4t-4-4L410 586v-4z"/><glyph unicode="Ä" horiz-adv-x="1257" d="M82 43q0-14 8-25 13-16 33-16h67q12 0 23 8.5T229 31l131 405q0 2 5 2h530q4 0 4-2l131-405q5-12 16-20.5t23-8.5h66q22 0 32 16 9 9 9 25 0 8-2 12L735 1407q-10 27-39 27H565q-29 0-39-27L84 55q-2-4-2-12zm283 1577v102q0 17 12 29t29 12h59q17 0 29-12t12-29v-102q0-17-12-29t-29-12h-59q-17 0-29 12t-12 29zm45-1038v4l215 678q0 4 4 4t4-4l215-678v-4q-2-2-4-2H414zm231 1038v102q0 17 12 29t29 12h59q17 0 29-12t12-29v-102q0-17-12-29t-29-12h-59q-17 0-29 12t-12 29z"/><glyph unicode="È" horiz-adv-x="1048" d="M82 43v1350q0 17 12 29t29 12h772q17 0 29-12t12-29v-64q0-17-12-29t-29-12H229q-4 0-4-4V819q0-4 4-4h625q17 0 29-12t12-29v-63q0-17-12-29t-29-12H229q-4 0-4-4V152q0-5 4-5h697q17 0 29-12t12-29V43q0-17-12-29T926 2H123q-17 0-29 12T82 43zm215 1729q0 6 4 18 13 22 37 22h80q26 0 35-22l120-219q7-11 7-21t-7-20q-11-21-34-21h-33q-19 0-33 17l-168 221q-8 8-8 25z"/><glyph unicode="É" horiz-adv-x="1048" d="M82 43v1350q0 17 12 29t29 12h772q17 0 29-12t12-29v-64q0-17-12-29t-29-12H229q-4 0-4-4V819q0-4 4-4h625q17 0 29-12t12-29v-63q0-17-12-29t-29-12H229q-4 0-4-4V152q0-5 4-5h697q17 0 29-12t12-29V43q0-17-12-29T926 2H123q-17 0-29 12T82 43zm344 1495q0 6 4 18l121 220q13 22 37 22h80q24 0 37-22 4-12 4-19 0-6-9-24l-168-222q-13-16-32-16h-33q-25 0-35 21-6 9-6 22z"/><glyph unicode="Ê" horiz-adv-x="1048" d="M82 43v1350q0 17 12 29t29 12h772q17 0 29-12t12-29v-64q0-17-12-29t-29-12H229q-4 0-4-4V819q0-4 4-4h625q17 0 29-12t12-29v-63q0-17-12-29t-29-12H229q-4 0-4-4V152q0-5 4-5h697q17 0 29-12t12-29V43q0-17-12-29T926 2H123q-17 0-29 12T82 43zm223 1501q0 12 6 21l129 221q10 20 35 20h70q25 0 35-20l133-221q4-6 4-21 0-12-4-20-14-21-37-21h-35q-24 0-37 23l-90 164q0 2-4 2-2 0-2-2l-90-164q-13-23-37-23h-35q-24 0-35 21-6 9-6 20z"/><glyph unicode="Ë" horiz-adv-x="1048" d="M82 43q0-17 12-29t29-12h803q17 0 29 12t12 29v63q0 17-12 29t-29 12H229q-4 0-4 5v514q0 4 4 4h625q17 0 29 12t12 29v63q0 17-12 29t-29 12H229q-4 0-4 4v465q0 4 4 4h666q17 0 29 12t12 29v64q0 17-12 29t-29 12H123q-17 0-29-12t-12-29V43zm141 1567v102q0 17 12 29t29 12h60q17 0 29-12t12-29v-102q0-17-12-29t-29-12h-60q-17 0-29 12t-12 29zm277 0v102q0 17 12 29t29 12h59q17 0 29-12t12-29v-102q0-17-12-29t-29-12h-59q-17 0-29 12t-12 29z"/><glyph unicode="Ì" horiz-adv-x="307" d="M82 43v1350q0 17 12 29t29 12h61q17 0 29-12t12-29V43q0-17-12-29T184 2h-61q-17 0-29 12T82 43zm41 1724q0 7 4 19 13 22 37 22h80q26 0 35-22l120-219q7-11 7-21t-7-20q-11-21-34-21h-33q-19 0-33 17l-168 221q-8 8-8 24z"/><glyph unicode="Í" horiz-adv-x="307" d="M82 43v1350q0 17 12 29t29 12h61q17 0 29-12t12-29V43q0-17-12-29T184 2h-61q-17 0-29 12T82 43zm41 1493q0 6 4 18l121 220q13 22 37 22h80q23 0 36-22 5-15 5-19 0-6-9-24l-168-222q-13-16-32-16h-33q-25 0-35 20-6 9-6 23z"/><glyph unicode="Î" horiz-adv-x="307" d="M82 43v1350q0 17 12 29t29 12h61q17 0 29-12t12-29V43q0-17-12-29T184 2h-61q-17 0-29 12T82 43zm41 1495q0 12 6 21l129 221q10 20 35 20h69q25 0 35-20l133-221q5-7 5-21 0-10-5-20-14-21-36-21h-35q-24 0-37 23l-90 163q0 3-4 3-2-1-2-3l-90-163q-13-23-37-23h-35q-24 0-35 21-6 9-6 20z"/><glyph unicode="Ï" horiz-adv-x="307" d="M82 43q0-17 12-29t29-12h61q17 0 29 12t12 29v1350q0 17-12 29t-29 12h-61q-17 0-29-12t-12-29V43zm41 1546v103q0 17 12 29t29 12h59q17 0 29-12t12-29v-103q0-17-12-29t-29-12h-59q-17 0-29 12t-12 29zm276 0v103q0 17 12 29t29 12h60q17 0 29-12t12-29v-103q0-17-12-29t-29-12h-60q-17 0-29 12t-12 29z"/><glyph unicode="Ñ" horiz-adv-x="1132" d="M82 43v1350q0 17 12 29t29 12h123q24 0 35-21L901 231l2-2h2q2 0 2 4v1160q0 17 12 29t29 12h62q18 0 29.5-11.5t11.5-29.5V43q0-18-11.5-29.5T1010 2H889q-24 0-37 23L233 1206q-2 2-4 2l-4-4V43q0-17-12-29T184 2h-61q-17 0-29 12T82 43zm295 1491q6 99 51 147 33 33 78 33 38 0 104-41 2-1 5.5-3t5.5-3l6-4q49-29 69-29t29 15q9 12 12 37 3 15 14.5 24.5t26.5 9.5h15q16 0 30-14 11-7 11-23v-6q-3-98-48-143-31-31-79-31-41 0-115 45l-12 6q-45 29-64 29-20 0-31-22l-10-35q-1-15-13-25t-26-10h-18q-19 0-31 12-10 13-10 31z"/><glyph unicode="Ò" horiz-adv-x="1277" d="M82 717q0 163 37 293 39 142 106 231 73 97 176 152 100 53 238 53t238-53q102-56 174-152 70-94 108-231 37-130 37-293 0-165-37-295-38-134-108-232-72-96-174-149-104-55-238-55T401 41Q298 93 225 190q-67 94-106 232-37 130-37 295zm139 0q0-131 33-250 29-108 88-186 55-76 133-117 74-41 164-41 87 0 164 41 72 40 131 117 55 72 90 186 33 119 33 250 0 128-33 250-36 115-90 186-55 73-131 115-77 41-164 41-90 0-164-41-77-41-133-115-60-83-88-186-33-122-33-250zm176 1065q0 6 4 18 13 23 37 23h80q25 0 35-23l121-219q6-9 6-20 0-12-6-21-10-20-35-20h-33q-20 0-33 16l-167 221q-9 9-9 25z"/><glyph unicode="Ó" horiz-adv-x="1277" d="M82 717q0 163 37 293 39 142 106 231 73 97 176 152 100 53 238 53t238-53q102-56 174-152 70-94 108-231 37-130 37-293 0-165-37-295-38-134-108-232-72-96-174-149-104-55-238-55T401 41Q298 93 225 190q-67 94-106 232-37 130-37 295zm139 0q0-131 33-250 29-108 88-186 55-76 133-117 74-41 164-41 87 0 164 41 72 40 131 117 55 72 90 186 33 119 33 250 0 128-33 250-36 115-90 186-55 73-131 115-77 41-164 41-90 0-164-41-77-41-133-115-60-83-88-186-33-122-33-250zm375 842q0 6 4 18l121 219q13 23 37 23h80q23 0 36-23 5-15 5-18 0-7-9-25l-168-221q-13-16-32-16h-33q-25 0-35 20-6 9-6 23z"/><glyph unicode="Ô" horiz-adv-x="1277" d="M82 717q0 163 37 293 39 142 106 231 73 97 176 152 100 53 238 53t238-53q102-56 174-152 70-94 108-231 37-130 37-293 0-165-37-295-38-134-108-232-72-96-174-149-104-55-238-55T401 41Q298 93 225 190q-67 94-106 232-37 130-37 295zm139 0q0-131 33-250 29-108 88-186 55-76 133-117 74-41 164-41 87 0 164 41 72 40 131 117 55 72 90 186 33 119 33 250 0 128-33 250-36 115-90 186-55 73-131 115-77 41-164 41-90 0-164-41-77-41-133-115-60-83-88-186-33-122-33-250zm205 837q0 12 6 21l129 221q11 21 35 21h70q24 0 34-21l134-221q4-6 4-21 0-12-4-20-14-21-37-21h-35q-24 0-37 23l-90 164q0 2-4 2-2 0-2-2l-90-164q-13-23-37-23h-35q-25 0-35 21-6 9-6 20z"/><glyph unicode="Õ" horiz-adv-x="1277" d="M82 717q0 163 37 293 39 142 106 231 73 97 176 152 100 53 238 53t238-53q102-56 174-152 70-94 108-231 37-130 37-293 0-165-37-295-38-134-108-232-72-96-174-149-104-55-238-55T401 41Q298 93 225 190q-67 94-106 232-37 130-37 295zm139 0q0-131 33-250 29-108 88-186 55-76 133-117 74-41 164-41 87 0 164 41 72 40 131 117 55 72 90 186 33 119 33 250 0 128-33 250-36 115-90 186-55 73-131 115-77 41-164 41-90 0-164-41-77-41-133-115-60-83-88-186-33-122-33-250zm191 831q6 100 51 148 33 33 78 33 38 0 104-41 2-1 5-3.5t5-3.5l7-4q47-28 69-28 21 0 29 14 9 12 12 37 3 15 14.5 25t26.5 10h14q16 0 31-15 10-7 10-22v-6q-3-100-47-144-30-30-80-30-40 0-114 45-2 1-6.5 3t-6.5 3q-43 28-63 28t-31-22l-10-35q-1-15-13-25t-26-10h-18q-18 0-31 13-10 13-10 30z"/><glyph unicode="Ö" horiz-adv-x="1277" d="M82 717q0-165 37-295 39-138 106-232 73-97 176-149 104-55 238-55t238 55q102 53 174 149 70 98 108 232 37 130 37 295 0 163-37 293-38 137-108 231-72 96-174 152-100 53-238 53t-238-53q-103-55-176-152-67-89-106-231-37-130-37-293zm139 0q0 128 33 250 28 103 88 186 56 74 133 115 74 41 164 41 87 0 164-41 76-42 131-115 54-71 90-186 33-122 33-250 0-131-33-250-35-114-90-186-59-77-131-117-77-41-164-41-90 0-164 41-78 41-133 117-59 78-88 186-33 119-33 250zm146 868v103q0 17 12 29t29 12h59q17 0 29-12t12-29v-103q0-17-12-29t-29-12h-59q-17 0-29 12t-12 29zm276 0v103q0 17 12 29t29 12h59q17 0 29-12t12-29v-103q0-17-12-29t-29-12h-59q-17 0-29 12t-12 29z"/><glyph unicode="Ø" horiz-adv-x="1277" d="M82 717q0 163 37 293 39 142 106 231 73 97 176 152 100 53 238 53t238-53q102-56 174-152 70-94 108-231 37-130 37-293 0-165-37-295-38-134-108-232-72-96-174-149-104-55-238-55T401 41Q298 93 225 190q-67 94-106 232-37 130-37 295zm139 0q0-131 33-250 29-108 88-186 55-76 133-117 74-41 164-41 87 0 164 41 72 40 131 117 55 72 90 186 33 119 33 250 0 128-33 250-36 115-90 186-55 73-131 115-77 41-164 41-90 0-164-41-77-41-133-115-60-83-88-186-33-122-33-250zm47-795q0 8 2 12l457 1627q3 12 15 20t26 8h57q21 0 31-16 8-11 8-27v-8L412-88q-3-13-14-22t-25-9h-64q-19 0-33 17-8 8-8 24z"/><glyph unicode="Ù" horiz-adv-x="1112" d="M82 512v881q0 17 12 29t29 12h61q17 0 29-12t12-29V502q0-82 29-154 27-70 74-117 39-42 102-71 62-27 115-27 59 0 123 25 61 21 110 67 46 43 78 115 31 70 31 158v895q0 17 12 29t29 12h61q17 0 29-12t12-29V508q0-123-43-221-44-96-113-162-64-61-155-98Q632-8 545-8q-88 0-164 33-84 35-150 98-64 64-108 164-41 96-41 225zm244 1264q0 6 4 18 13 23 37 23h79q25 0 35-23l121-219q6-9 6-21 0-11-6-20-10-21-35-21h-32q-19 0-33 17l-168 221q-8 8-8 25z"/><glyph unicode="Ú" horiz-adv-x="1112" d="M82 512v881q0 17 12 29t29 12h61q17 0 29-12t12-29V502q0-82 29-154 27-70 74-117 39-42 102-71 62-27 115-27 59 0 123 25 61 21 110 67 46 43 78 115 31 70 31 158v895q0 17 12 29t29 12h61q17 0 29-12t12-29V508q0-123-43-221-44-96-113-162-64-61-155-98Q632-8 545-8q-88 0-164 33-84 35-150 98-64 64-108 164-41 96-41 225zm395 1024q0 6 4 18l121 220q13 22 37 22h80q24 0 37-22 4-12 4-19 0-8-8-24l-168-222q-13-16-33-16h-33q-25 0-35 20-6 9-6 23z"/><glyph unicode="Û" horiz-adv-x="1112" d="M82 512v881q0 17 12 29t29 12h61q17 0 29-12t12-29V502q0-82 29-154 27-70 74-117 39-42 102-71 62-27 115-27 59 0 123 25 61 21 110 67 46 43 78 115 31 70 31 158v895q0 17 12 29t29 12h61q17 0 29-12t12-29V508q0-123-43-221-44-96-113-162-64-61-155-98Q632-8 545-8q-88 0-164 33-84 35-150 98-64 64-108 164-41 96-41 225zm270 1036q0 12 6 21l129 221q10 20 35 20h70q25 0 35-20l133-221q4-6 4-21 0-12-4-20-14-21-37-21h-35q-24 0-37 23l-90 164q0 2-4 2-2 0-2-2l-90-164q-13-23-37-23h-35q-25 0-35 21-6 9-6 20z"/><glyph unicode="Ü" horiz-adv-x="1112" d="M82 512q0-129 41-225 44-100 108-164 66-63 150-98Q457-8 545-8q87 0 174 35 91 37 155 98 69 66 113 162 43 98 43 221v885q0 17-12 29t-29 12h-61q-17 0-29-12t-12-29V498q0-88-31-158-32-72-78-115-49-46-110-67-64-25-123-25-53 0-115 27-63 29-102 71-47 47-74 117-29 73-29 154v891q0 17-12 29t-29 12h-61q-17 0-29-12t-12-29V512zm207 1067v102q0 17 12 29t29 12h59q17 0 29-12t12-29v-102q0-17-12-29t-29-12h-59q-17 0-29 12t-12 29zm276 0v102q0 17 12 29t29 12h60q17 0 29-12t12-29v-102q0-17-12-29t-29-12h-60q-17 0-29 12t-12 29z"/><glyph unicode="Ý" horiz-adv-x="1167" d="M82 1393q0 13 6 22 10 19 35 19h72q22 0 36-21l353-684q0-2 4-2 2 0 2 2l346 682q10 23 37 23h71q22 0 35-19 6-9 6-22 0-10-6-19L655 578V43q0-17-12-29T614 2h-61q-17 0-29 12t-12 29v535L86 1374q-4 12-4 19zm424 133q0 6 4 18l121 219q13 23 37 23h80q23 0 36-23 4-12 4-18 0-9-8-25l-168-221q-13-16-32-16h-33q-25 0-35 20-6 9-6 23z"/><glyph unicode="à" d="M82 514q0 112 24 207 20 91 72 168 46 70 119 112 70 43 164 43 33 0 71-12 29-10 70-35 43-30 66-53 29-29 41-45l2-2h2q2 2 2 4v103q0 17 12 28.5t29 11.5h61q17 0 29-11.5t12-28.5V39q0-17-12-28T817 0h-61q-17 0-29 11t-12 28v96q0 4-2 4h-2q-2 0-2-2-44-68-103-106-67-43-141-43-100 0-166 41-73 42-119 112-49 70-74 168-24 95-24 205zm143 0q0-72 17-152 16-72 49-122 31-54 76-82 48-31 104-31t104 31q45 28 76 82 33 57 47 122 17 67 17 152v16q0 78-19 146-20 74-47 119-28 49-76 79-45 29-102 29t-102-31q-50-32-78-81-34-51-49-123-17-83-17-154zm13 879q0 6 4 18 13 23 37 23h79q25 0 35-23l121-219q6-9 6-21 0-11-6-20-10-21-35-21h-33q-18 0-32 17l-168 221q-8 8-8 25z"/><glyph unicode="á" d="M82 514q0 112 24 207 20 91 72 168 46 70 119 112 70 43 164 43 33 0 71-12 29-10 70-35 43-30 66-53 29-29 41-45l2-2h2q2 2 2 4v103q0 17 12 28.5t29 11.5h61q17 0 29-11.5t12-28.5V39q0-17-12-28T817 0h-61q-17 0-29 11t-12 28v96q0 4-2 4h-2q-2 0-2-2-44-68-103-106-67-43-141-43-100 0-166 41-73 42-119 112-49 70-74 168-24 95-24 205zm143 0q0-72 17-152 16-72 49-122 31-54 76-82 48-31 104-31t104 31q45 28 76 82 33 57 47 122 17 67 17 152v16q0 78-19 146-20 74-47 119-28 49-76 79-45 29-102 29t-102-31q-50-32-78-81-34-51-49-123-17-83-17-154zm142 660q0 6 4 18l121 219q13 23 36 23h80q24 0 37-23 4-12 4-18 0-9-8-25l-168-221q-14-17-33-17h-32q-24 0-35 21-6 9-6 23z"/><glyph unicode="â" d="M82 514q0 112 24 207 20 91 72 168 46 70 119 112 70 43 164 43 33 0 71-12 29-10 70-35 43-30 66-53 29-29 41-45l2-2h2q2 2 2 4v103q0 17 12 28.5t29 11.5h61q17 0 29-11.5t12-28.5V39q0-17-12-28T817 0h-61q-17 0-29 11t-12 28v96q0 4-2 4h-2q-2 0-2-2-44-68-103-106-67-43-141-43-100 0-166 41-73 42-119 112-49 70-74 168-24 95-24 205zm143 0q0-72 17-152 16-72 49-122 31-54 76-82 48-31 104-31t104 31q45 28 76 82 33 57 47 122 17 67 17 152v16q0 78-19 146-20 74-47 119-28 49-76 79-45 29-102 29t-102-31q-50-32-78-81-34-51-49-123-17-83-17-154zm15 657q0 12 6 21l129 221q11 21 35 21h69q25 0 35-21l133-221q4-6 4-21 0-12-4-20-14-21-37-21h-35q-23 0-36 23l-90 164q0 2-5 2-2 0-2-2l-90-164q-13-23-37-23h-34q-25 0-35 21-6 9-6 20z"/><glyph unicode="ã" d="M82 514q0 112 24 207 20 91 72 168 46 70 119 112 70 43 164 43 33 0 71-12 29-10 70-35 43-30 66-53 29-29 41-45l2-2h2q2 2 2 4v103q0 17 12 28.5t29 11.5h61q17 0 29-11.5t12-28.5V39q0-17-12-28T817 0h-61q-17 0-29 11t-12 28v96q0 4-2 4h-2q-2 0-2-2-44-68-103-106-67-43-141-43-100 0-166 41-73 42-119 112-49 70-74 168-24 95-24 205zm127 694q6 100 51 148 33 33 78 33 38 0 104-41 2-1 5.5-3.5t5.5-3.5l6-4q47-28 69-28 21 0 29 14 9 12 12 37 3 15 14.5 25t26.5 10h15q15 0 30-15 11-7 11-22v-6q-3-99-48-144-30-30-79-30-41 0-115 45l-12 6q-43 28-64 28-20 0-31-22l-10-35q-1-15-13-25t-26-10h-18q-18 0-31 13-10 13-10 30zm16-694q0-72 17-152 16-72 49-122 31-54 76-82 48-31 104-31t104 31q45 28 76 82 33 57 47 122 17 67 17 152v16q0 78-19 146-20 74-47 119-28 49-76 79-45 29-102 29t-102-31q-50-32-78-81-34-51-49-123-17-83-17-154z"/><glyph unicode="ä" d="M82 514q0-110 24-205 25-98 74-168 46-70 119-112 66-41 166-41 74 0 141 43 59 38 103 106l2 2h2q2 0 2-4V39q0-17 12-28t29-11h61q17 0 29 11t12 28v965q0 17-12 28.5t-29 11.5h-61q-17 0-29-11.5t-12-28.5V901q0-2-2-4h-2q-2 0-2 2-12 16-41 45-23 23-66 53-41 25-70 35-38 12-71 12-94 0-164-43-73-42-119-112-52-77-72-168-24-95-24-207zm143 0q0 71 17 154 15 72 49 123 28 49 78 81 45 31 102 31t102-29q48-30 76-79 27-45 47-119 19-68 19-146v-16q0-85-17-152-14-65-47-122-31-54-76-82-48-31-104-31t-104 31q-45 28-76 82-33 50-49 122-17 80-17 152zm2 731v103q0 17 12 29t29 12h60q17 0 29-12t12-29v-103q0-17-12-29t-29-12h-60q-17 0-29 12t-12 29zm277 0v103q0 17 12 29t29 12h59q17 0 29-12t12-29v-103q0-17-12-29t-29-12h-59q-17 0-29 12t-12 29z"/><glyph unicode="è" horiz-adv-x="991" d="M82 532q0 97 29 195 29 88 84 162 56 71 133 112 76 43 174 43t170-38q74-38 127-103 57-73 82-158 28-92 28-196v-23q0-17-12-29t-29-12H233q-2-2-2-4 3-58 23-127 22-67 57-116 43-56 86-80 51-31 107-31 99 0 160 49 60 50 88 127 10 27 39 27h49q18 0 32-17 9-9 9-22 0-8-2-12-6-33-41-97-38-63-88-104-55-45-115-66-59-22-131-22-98 0-174 43-80 48-133 119-56 74-86 174-29 102-29 206zm149 82q0-2 2-4h527q0 1 1 2t1 2q-3 56-21 109-19 60-53 96-40 43-84 62-45 22-110 22-56 0-103-24-42-20-84-66-33-39-55-94-18-53-21-105zm43 779q0 3 5 18 13 23 36 23h80q25 0 35-23l121-219q6-9 6-21 0-11-6-20-11-21-35-21h-33q-18 0-32 17l-168 221q-9 9-9 25z"/><glyph unicode="é" horiz-adv-x="991" d="M82 532q0 97 29 195 29 88 84 162 56 71 133 112 76 43 174 43t170-38q74-38 127-103 57-73 82-158 28-92 28-196v-23q0-17-12-29t-29-12H233q-2-2-2-4 3-58 23-127 22-67 57-116 43-56 86-80 51-31 107-31 99 0 160 49 60 50 88 127 10 27 39 27h49q18 0 32-17 9-9 9-22 0-8-2-12-6-33-41-97-38-63-88-104-55-45-115-66-59-22-131-22-98 0-174 43-80 48-133 119-56 74-86 174-29 102-29 206zm149 82q0-2 2-4h527q0 1 1 2t1 2q-3 56-21 109-19 60-53 96-40 43-84 62-45 22-110 22-56 0-103-24-42-20-84-66-33-39-55-94-18-53-21-105zm230 560q0 6 4 18l121 219q13 23 37 23h79q24 0 37-23 4-12 4-18 0-9-8-25l-168-221q-14-17-32-17h-33q-24 0-35 21-6 9-6 23z"/><glyph unicode="ê" horiz-adv-x="991" d="M82 532q0 97 29 195 29 88 84 162 56 71 133 112 76 43 174 43t170-38q74-38 127-103 57-73 82-158 28-92 28-196v-23q0-17-12-29t-29-12H233q-2-2-2-4 3-58 23-127 22-67 57-116 43-56 86-80 51-31 107-31 99 0 160 49 60 50 88 127 10 27 39 27h49q18 0 32-17 9-9 9-22 0-8-2-12-6-33-41-97-38-63-88-104-55-45-115-66-59-22-131-22-98 0-174 43-80 48-133 119-56 74-86 174-29 102-29 206zm149 82q0-2 2-4h527q0 1 1 2t1 2q-3 56-21 109-19 60-53 96-40 43-84 62-45 22-110 22-56 0-103-24-42-20-84-66-33-39-55-94-18-53-21-105zm48 557q0 12 6 21l129 221q10 21 35 21h69q24 0 35-21l133-221q4-6 4-21 0-12-4-20-14-21-37-21h-35q-23 0-36 23l-91 164q0 2-4 2-2 0-2-2l-90-164q-13-23-37-23h-35q-23 0-34 21-6 9-6 20z"/><glyph unicode="ë" horiz-adv-x="991" d="M82 532q0-104 29-206 30-100 86-174 53-71 133-119 76-43 174-43 72 0 131 22 60 21 115 66 50 41 88 104 35 64 41 97 2 4 2 12 0 13-9 22-14 17-32 17h-49q-29 0-39-27-28-77-88-127-61-49-160-49-56 0-107 31-43 24-86 80-35 49-57 116-20 69-23 127 0 2 2 4h635q17 0 29 12t12 29v23q0 104-28 196-25 85-82 158-53 65-127 103-72 38-170 38t-174-43q-77-41-133-112-55-74-84-162-29-98-29-195zm149 82q3 52 21 105 22 55 55 94 42 46 84 66 46 24 103 24 65 0 110-22 44-19 84-62 34-36 53-96 18-53 21-109 0-1-1-2t-1-2H233q-2 2-2 4zm54 631v103q0 17 12 29t29 12h59q17 0 29-12t12-29v-103q0-17-12-29t-29-12h-59q-17 0-29 12t-12 29zm276 0v103q0 17 12 29t29 12h60q17 0 28.5-12t11.5-29v-103q0-17-11.5-29t-28.5-12h-60q-17 0-29 12t-12 29z"/><glyph unicode="ì" horiz-adv-x="305" d="M82 37v960q0 17 12 29t29 12h59q17 0 29-12t12-29V37q0-17-12-29T182-4h-59Q106-4 94 8T82 37zm41 1356q0 6 4 18 13 23 37 23h80q25 0 35-23l120-219q7-11 7-21 0-9-7-20-11-21-34-21h-33q-19 0-33 17l-168 221q-8 8-8 25z"/><glyph unicode="í" horiz-adv-x="305" d="M82 37v960q0 17 12 29t29 12h59q17 0 29-12t12-29V37q0-17-12-29T182-4h-59Q106-4 94 8T82 37zm41 1137q0 6 4 18l121 219q13 23 37 23h80q23 0 36-23 5-15 5-18 0-7-9-25l-168-221q-14-17-32-17h-33q-24 0-35 21-6 9-6 23z"/><glyph unicode="î" horiz-adv-x="305" d="M82 37v960q0 17 12 29t29 12h59q17 0 29-12t12-29V37q0-17-12-29T182-4h-59Q106-4 94 8T82 37zm41 1134q0 12 6 21l129 221q10 21 35 21h69q24 0 35-21l133-221q5-8 5-21 0-10-5-20-14-21-36-21h-35q-24 0-37 23l-90 164q0 2-4 2-2 0-2-2l-90-164q-13-23-37-23h-35q-24 0-35 21-6 9-6 20z"/><glyph unicode="ï" horiz-adv-x="305" d="M82 37q0-17 12-29t29-12h59q17 0 29 12t12 29v960q0 17-12 29t-29 12h-59q-17 0-29-12t-12-29V37zm41 1208v103q0 17 12 29t29 12h59q17 0 29-12t12-29v-103q0-17-12-29t-29-12h-59q-17 0-29 12t-12 29zm276 0v103q0 17 12 29t29 12h60q17 0 29-12t12-29v-103q0-17-12-29t-29-12h-60q-17 0-29 12t-12 29z"/><glyph unicode="ñ" horiz-adv-x="901" d="M82 37v958q0 17 12 29t29 12h61q17 0 29-12t12-29V889q0-4 4-4h4q65 80 140 114 84 41 170 41 130 0 205-84 71-83 71-225V37q0-17-12-29T778-4h-59q-17 0-29 12t-12 29v676q0 102-43 145-44 41-119 41-60 0-115-25-53-24-92-63-37-40-61-92-23-57-23-107V37q0-17-12-29T184-4h-61Q106-4 94 8T82 37zm186 1171q6 100 51 148 33 33 78 33 39 0 105-41 2-1 5-3.5t5-3.5l6-4q47-28 70-28 20 0 28 14 10 13 13 37 3 15 14.5 25t26.5 10h14q16 0 31-15 10-7 10-22v-6q-3-100-47-144-30-30-80-30-41 0-115 45l-12 6q-43 28-63 28t-31-22l-10-35q-1-15-13-25t-26-10h-19q-17 0-30 13-11 15-11 30z"/><glyph unicode="ò" horiz-adv-x="999" d="M82 512q0 99 27 205 27 96 81 168t129 112q79 43 179 43 101 0 178-41 81-44 133-114 55-74 82-168t27-205q0-108-27-203-27-94-82-168-49-66-133-112-77-41-178-41-104 0-179 41-75 40-129 112t-81 168Q82 415 82 512zm141 0q0-71 21-150 23-76 53-122 41-57 86-82 54-31 115-31 60 0 114 31 47 24 88 82 41 62 56 122 18 67 18 150 0 82-18 152-15 60-56 122-41 57-88 84-54 31-114 31-61 0-115-31-46-28-86-84-36-54-53-122-21-70-21-152zm45 881q0 6 4 18 13 23 37 23h80q25 0 35-23l121-219q6-9 6-21 0-11-6-20-11-21-35-21h-33q-19 0-33 17l-168 221q-8 8-8 25z"/><glyph unicode="ó" horiz-adv-x="999" d="M82 512q0 99 27 205 27 96 81 168t129 112q79 43 179 43 101 0 178-41 81-44 133-114 55-74 82-168t27-205q0-108-27-203-27-94-82-168-49-66-133-112-77-41-178-41-104 0-179 41-75 40-129 112t-81 168Q82 415 82 512zm141 0q0-71 21-150 23-76 53-122 41-57 86-82 54-31 115-31 60 0 114 31 47 24 88 82 41 62 56 122 18 67 18 150 0 82-18 152-15 60-56 122-41 57-88 84-54 31-114 31-61 0-115-31-46-28-86-84-36-54-53-122-21-70-21-152zm209 662q0 6 4 18l121 219q13 23 37 23h80q24 0 37-23 4-12 4-18 0-9-8-25l-168-221q-14-17-33-17h-33q-25 0-35 21-6 9-6 23z"/><glyph unicode="ô" horiz-adv-x="999" d="M82 512q0 99 27 205 27 96 81 168t129 112q79 43 179 43 101 0 178-41 81-44 133-114 55-74 82-168t27-205q0-108-27-203-27-94-82-168-49-66-133-112-77-41-178-41-104 0-179 41-75 40-129 112t-81 168Q82 415 82 512zm141 0q0-71 21-150 23-76 53-122 41-57 86-82 54-31 115-31 60 0 114 31 47 24 88 82 41 62 56 122 18 67 18 150 0 82-18 152-15 60-56 122-41 57-88 84-54 31-114 31-61 0-115-31-46-28-86-84-36-54-53-122-21-70-21-152zm45 659q0 12 6 21l129 221q11 21 35 21h70q24 0 35-21l133-221q4-6 4-21 0-12-4-20-14-21-37-21h-35q-24 0-37 23l-90 164q0 2-4 2-2 0-2-2l-90-164q-13-23-37-23h-35q-25 0-35 21-6 9-6 20z"/><glyph unicode="õ" horiz-adv-x="999" d="M82 512q0 99 27 205 27 96 81 168t129 112q79 43 179 43 101 0 178-41 81-44 133-114 55-74 82-168t27-205q0-108-27-203-27-94-82-168-49-66-133-112-77-41-178-41-104 0-179 41-75 40-129 112t-81 168Q82 415 82 512zm141 0q0-71 21-150 23-76 53-122 41-57 86-82 54-31 115-31 60 0 114 31 47 24 88 82 41 62 56 122 18 67 18 150 0 82-18 152-15 60-56 122-41 57-88 84-54 31-114 31-61 0-115-31-46-28-86-84-36-54-53-122-21-70-21-152zm15 696q6 100 51 148 33 33 78 33 38 0 104-41 2-1 5-3.5t5-3.5l6-4q47-28 70-28 21 0 29 14 9 12 12 37 3 15 14.5 25t26.5 10h14q16 0 31-15 10-7 10-22v-6q-3-100-47-144-30-30-80-30-40 0-114 45-2 1-6.5 3t-6.5 3q-43 28-63 28t-31-22l-10-35q-1-15-13-25t-26-10h-18q-18 0-31 13-10 13-10 30z"/><glyph unicode="ö" horiz-adv-x="999" d="M82 512q0-97 27-203 27-96 81-168T319 29q75-41 179-41 101 0 178 41 84 46 133 112 55 74 82 168t27 203q0 110-27 205-27 94-82 168-52 70-133 114-77 41-178 41-100 0-179-43-75-40-129-112t-81-168Q82 611 82 512zm141 0q0 82 21 152 17 68 53 122 40 56 86 84 54 31 115 31 60 0 114-31 47-27 88-84 41-62 56-122 18-70 18-152t-18-150q-15-60-56-122-41-58-88-82-54-31-114-31-61 0-115 31-45 25-86 82-30 46-53 122-21 79-21 150zm41 733v103q0 17 12 29t29 12h60q17 0 29-12t12-29v-103q0-17-12-29t-29-12h-60q-17 0-29 12t-12 29zm277 0v103q0 17 12 29t29 12h59q17 0 29-12t12-29v-103q0-17-12-29t-29-12h-59q-17 0-29 12t-12 29z"/><glyph unicode="ø" horiz-adv-x="999" d="M82 512q0 99 27 205 27 96 81 168t129 112q79 43 179 43 101 0 178-41 81-44 133-114 55-74 82-168t27-205q0-108-27-203-27-94-82-168-49-66-133-112-77-41-178-41-104 0-179 41-75 40-129 112t-81 168Q82 415 82 512zm131-817q0 8 2 12l457 1626q3 12 15 20.5t26 8.5h57q21 0 31-16 8-11 8-27v-8L356-315q-3-13-14-22t-25-9h-63q-20 0-33 16-8 8-8 25zm10 817q0-71 21-150 23-76 53-122 41-57 86-82 54-31 115-31 60 0 114 31 47 24 88 82 41 62 56 122 18 67 18 150 0 82-18 152-15 60-56 122-41 57-88 84-54 31-114 31-61 0-115-31-46-28-86-84-36-54-53-122-21-70-21-152z"/><glyph unicode="ù" horiz-adv-x="901" d="M82 305v694q0 17 12 29t29 12h61q17 0 29-12t12-29V324q0-104 43-144 43-43 119-43 55 0 113 25 53 24 92 63t63 92q23 57 23 107v575q0 17 12 29t29 12h59q17 0 29-12t12-29V55q0-17-12-29t-29-12h-59q-17 0-29 12t-12 29v95l-4 4q-4 0-4-2-64-76-140-115Q446-4 358-4 231-4 156 80q-37 40-56 98-18 56-18 127zm137 1088q0 6 4 18 13 23 37 23h80q25 0 35-23l121-219q6-9 6-21 0-11-6-20-10-21-35-21h-33q-19 0-33 17l-168 221q-8 8-8 25z"/><glyph unicode="ú" horiz-adv-x="901" d="M82 305v694q0 17 12 29t29 12h61q17 0 29-12t12-29V324q0-104 43-144 43-43 119-43 55 0 113 25 53 24 92 63t63 92q23 57 23 107v575q0 17 12 29t29 12h59q17 0 29-12t12-29V55q0-17-12-29t-29-12h-59q-17 0-29 12t-12 29v95l-4 4q-4 0-4-2-64-76-140-115Q446-4 358-4 231-4 156 80q-37 40-56 98-18 56-18 127zm280 869q0 3 5 18l120 219q13 23 37 23h80q24 0 37-23 4-12 4-18 0-9-8-25l-168-221q-14-17-33-17h-33q-23 0-34 21-7 11-7 23z"/><glyph unicode="û" horiz-adv-x="901" d="M82 305v694q0 17 12 29t29 12h61q17 0 29-12t12-29V324q0-104 43-144 43-43 119-43 55 0 113 25 53 24 92 63t63 92q23 57 23 107v575q0 17 12 29t29 12h59q17 0 29-12t12-29V55q0-17-12-29t-29-12h-59q-17 0-29 12t-12 29v95l-4 4q-4 0-4-2-64-76-140-115Q446-4 358-4 231-4 156 80q-37 40-56 98-18 56-18 127zm133 866q0 12 6 21l129 221q10 21 35 21h70q23 0 34-21l134-221q4-6 4-21 0-12-4-20-14-21-37-21h-35q-24 0-37 23l-90 164q0 2-4 2-2 0-2-2l-90-164q-13-23-37-23h-35q-24 0-35 21-6 9-6 20z"/><glyph unicode="ü" horiz-adv-x="901" d="M82 305q0-71 18-127 19-58 56-98Q231-4 358-4q88 0 172 41 76 39 140 115 0 2 4 2l4-4V55q0-17 12-29t29-12h59q17 0 29 12t12 29v944q0 17-12 29t-29 12h-59q-17 0-29-12t-12-29V424q0-50-23-107-24-53-63-92t-92-63q-58-25-113-25-76 0-119 43-43 40-43 144v675q0 17-12 29t-29 12h-61q-17 0-29-12t-12-29V305zm143 940v103q0 17 12 29t29 12h60q17 0 29-12t12-29v-103q0-17-12-29t-29-12h-60q-17 0-29 12t-12 29zm277 0v103q0 17 12 29t29 12h59q17 0 29-12t12-29v-103q0-17-12-29t-29-12h-59q-17 0-29 12t-12 29z"/><glyph unicode="ý" horiz-adv-x="946" d="M82 993q0 17 8 25 13 16 33 16h67q14 0 26-8t15-20l242-791q0-2 4-2 2 0 4 2l240 791q3 12 14 20t25 8h63q23 0 33-16 8-8 8-25 0-8-2-12Q594 129 494-195q-9-29-9-30-16-53-43-103-20-36-53-69-30-27-57-39-33-13-60-13-21 0-49 7-6 0-22 4-31 10-31 39v53q0 20 16 33 8 8 25 8h10q18-6 35-6 20 0 39 16 20 17 33 39 11 23 22 51 10 23 17 47 41 144 41 146v2L84 981q-2 4-2 12zm352 181q0 6 4 18l121 219q13 23 37 23h80q24 0 37-23 4-12 4-18 0-9-8-25l-168-221q-14-17-33-17h-33q-25 0-35 21-6 9-6 23z"/><glyph unicode="ÿ" horiz-adv-x="946" d="M82 993q0-8 2-12L408-10v-2l-41-146q-7-25-17-47-11-28-22-51-13-22-33-39-19-16-39-16-17 0-35 6h-10q-17 0-25-8-16-13-16-33v-53q0-29 31-39 16-4 22-4 28-7 49-7 28 0 60 13 27 12 57 39 33 33 53 69 27 50 43 103 0 1 9 30Q594 129 862 981q2 4 2 12 0 17-8 25-10 16-33 16h-63q-14 0-25-8t-14-20L481 215q-2-2-4-2-4 0-4 2l-242 791q-3 12-15 20t-26 8h-67q-20 0-33-16-8-8-8-25zm182 252v103q0 17 12 29t29 12h60q17 0 29-12t12-29v-103q0-17-12-29t-29-12h-60q-17 0-29 12t-12 29zm277 0v103q0 17 12 29t29 12h59q17 0 29-12t12-29v-103q0-17-12-29t-29-12h-59q-17 0-29 12t-12 29z"/><glyph unicode="Ÿ" horiz-adv-x="1167" d="M82 1393q0-7 4-19l426-796V43q0-17 12-29t29-12h61q17 0 29 12t12 29v535l424 796q6 9 6 19 0 13-6 22-13 19-35 19h-71q-27 0-37-23L590 729l-2-2q-4 0-4 2l-353 684q-14 21-36 21h-72q-25 0-35-19-6-9-6-22zm274 196v103q0 17 12 29t29 12h60q17 0 29-12t12-29v-103q0-17-12-29t-29-12h-60q-17 0-29 12t-12 29zm277 0v103q0 17 12 29t29 12h59q17 0 29-12t12-29v-103q0-17-12-29t-29-12h-59q-17 0-29 12t-12 29z"/><glyph unicode="ˆ" horiz-adv-x="575" d="M82 1171q0 12 6 21l129 221q11 21 35 21h70q24 0 34-21l133-221q5-8 5-21 0-10-5-20-14-21-36-21h-35q-24 0-37 23l-90 164q0 2-4 2-2 0-2-2l-90-164q-13-23-37-23h-35q-25 0-35 21-6 9-6 20z"/><glyph unicode="˜" horiz-adv-x="620" d="M82 1208q6 100 51 148 33 33 78 33 38 0 104-41 2-1 5.5-3.5t5.5-3.5l6-4q47-28 69-28 21 0 29 14 9 12 12 37 3 15 14.5 25t26.5 10h15q15 0 30-15 11-7 11-22v-6q-3-100-47-144-30-30-80-30-41 0-115 45l-12 6q-43 28-64 28-20 0-31-22l-10-35q-1-15-13-25t-26-10h-18q-18 0-31 13-10 13-10 30z"/><glyph horiz-adv-x="911"/><glyph horiz-adv-x="1823"/><glyph horiz-adv-x="911"/><glyph horiz-adv-x="1823"/><glyph horiz-adv-x="607"/><glyph horiz-adv-x="455"/><glyph horiz-adv-x="303"/><glyph horiz-adv-x="303"/><glyph horiz-adv-x="227"/><glyph horiz-adv-x="364"/><glyph horiz-adv-x="101"/><glyph unicode="‐" horiz-adv-x="862" d="M82 549v43q0 17 12 29t29 12h616q17 0 29-12t12-29v-43q0-18-11.5-29.5T739 508H123q-18 0-29.5 11.5T82 549z"/><glyph unicode="‑" horiz-adv-x="862" d="M82 549v43q0 17 12 29t29 12h616q17 0 29-12t12-29v-43q0-18-11.5-29.5T739 508H123q-18 0-29.5 11.5T82 549z"/><glyph unicode="‒" horiz-adv-x="862" d="M82 549v43q0 17 12 29t29 12h616q17 0 29-12t12-29v-43q0-18-11.5-29.5T739 508H123q-18 0-29.5 11.5T82 549z"/><glyph unicode="–" horiz-adv-x="595" d="M82 549v43q0 17 12 29t29 12h350q17 0 29-12t12-29v-43q0-18-11.5-29.5T473 508H123q-18 0-29.5 11.5T82 549z"/><glyph unicode="—" horiz-adv-x="862" d="M82 549v43q0 17 12 29t29 12h616q17 0 29-12t12-29v-43q0-18-11.5-29.5T739 508H123q-18 0-29.5 11.5T82 549z"/><glyph unicode="‘" horiz-adv-x="335" d="M82 1087l4 197q3 112 53 150 11 8 25 8h8q7-2 17-6.5t12-5.5q18-12 18-35 0-12-6-21-4-8-6.5-20t-3-20.5-1.5-26.5-1-25l-2-43q0-4 4-4l10-2q17 0 29-12t12-29l-2-107q0-17-12-29t-29-12l-88 3q-20 0-29 12-12 12-12 28z"/><glyph unicode="’" horiz-adv-x="335" d="M82 1294l2 107q0 17 12 29t29 12l88-2q19 0 29-13 12-12 12-28l-4-197q-3-111-53-149-12-9-25-9h-8q-19 6-29 13-18 12-18 35 0 11 6 20 4 7 6.5 19t3 20.5 1.5 27 1 25.5l2 43q0 4-4 4h-10q-17 2-29 14t-12 29z"/><glyph unicode="‚" horiz-adv-x="335" d="M82 35l2 106q0 17 12 29t29 12l88-2q20 0 29-12 12-12 12-29l-4-196q-3-112-53-150-11-8-25-8h-8q-15 2-29 12-18 12-18 35 0 12 6 21 4 7 6.5 19t3 20.5 1.5 27 1 25.5l2 43q0 4-4 4h-10Q106-6 94 6T82 35z"/><glyph unicode="“" horiz-adv-x="546" d="M61 1087l5 197q3 112 53 150 11 8 24 8h9q7-2 16.5-6.5t11.5-5.5q19-13 19-35 0-12-6-21-9-17-13-92l-2-43q0-4 4-4l11-2q17 0 28.5-12t11.5-29l-2-107q0-17-12-29t-29-12l-88 3q-19 0-28 12-13 13-13 28zm232 0l4 197q3 112 53 150 11 8 25 8h8q7-2 17-6.5t12-5.5q18-12 18-35 0-12-6-21-4-8-6.5-20t-3-20.5-1.5-26.5-1-25l-2-43q0-4 4-4l10-2q17 0 29-12t12-29l-2-107q0-17-12-29t-29-12l-88 3q-20 0-29 12-12 12-12 28z"/><glyph unicode="”" horiz-adv-x="526" d="M61 1294l2 107q0 17 12 29t29 12l89-2q18 0 28-13 12-12 12-28l-4-197q-3-111-53-149-12-9-24-9h-9q-17 6-28 13-19 13-19 35 0 11 6 20 9 14 13 92l2 43q0 4-4 4h-11q-17 2-29 14t-12 29zm211 0l2 107q0 17 12 29t29 12l88-2q19 0 29-13 12-12 12-28l-4-197q-3-111-53-149-12-9-25-9h-8q-17 6-28 13-19 13-19 35 0 11 6 20 9 14 13 92l2 43q0 4-4 4h-11q-17 2-29 14t-12 29z"/><glyph unicode="„" horiz-adv-x="335" d="M82 35l2 106q0 17 12 29t29 12l88-2q20 0 29-12 12-12 12-29l-4-196q-3-112-53-150-11-8-25-8h-8q-15 2-29 12-18 12-18 35 0 12 6 21 4 7 6.5 19t3 20.5 1.5 27 1 25.5l2 43q0 4-4 4h-10Q106-6 94 6T82 35zm0 0l2 106q0 17 12 29t29 12l88-2q20 0 29-12 12-12 12-29l-4-196q-3-112-53-150-11-8-25-8h-8q-15 2-29 12-18 12-18 35 0 12 6 21 4 7 6.5 19t3 20.5 1.5 27 1 25.5l2 43q0 4-4 4h-10Q106-6 94 6T82 35z"/><glyph unicode="…" horiz-adv-x="315" d="M61 37v106q0 15 12 27t27 12h95q15 0 26.5-12t11.5-27V37q0-15-11.5-27T195-2h-95Q85-2 73 10T61 37zm0 0v106q0 15 12 27t27 12h95q15 0 26.5-12t11.5-27V37q0-15-11.5-27T195-2h-95Q85-2 73 10T61 37zm0 0v106q0 15 12 27t27 12h95q15 0 26.5-12t11.5-27V37q0-15-11.5-27T195-2h-95Q85-2 73 10T61 37z"/><glyph horiz-adv-x="364"/><glyph unicode="‹" horiz-adv-x="505" d="M82 522q0 13 6 19l219 311q10 16 35 16h41q24 0 37-20 4-8 4-17 0-11-6-20L213 524v-4l205-289q6-9 6-18 0-6-4-18-14-21-37-21h-41q-24 0-35 19L88 502q-6 9-6 20z"/><glyph unicode="›" horiz-adv-x="505" d="M82 213q0 9 6 18l205 289v4L88 811q-6 9-6 20 0 9 4 17 13 20 37 20h43q22 0 35-16l217-311q6-6 6-19 0-11-6-20L201 193q-15-19-35-19h-43q-23 0-37 21-4 12-4 18z"/><glyph horiz-adv-x="455"/><glyph unicode="€" horiz-adv-x="1069" d="M82 596v31q0 19 12 31t29 12h59q4 0 4 4v24q0 24 4 86 0 2-2 2 0 2-2 2h-63q-17 0-29 13t-12 30v31q0 19 12 31t29 12h78q4 0 4 4 34 217 151 359 151 180 369 180 123 0 223-53 25-14 25-39 0-2-1-5t-1-5l-19-66q-3-20-22-29-8-4-17-4-6 0-18 4-75 37-166 37-149 0-244-114-79-95-106-263v-4q2-2 4-2h471q17 0 29-12t12-31v-31q0-17-12-30t-29-13H365q-3 0-7-4-2-25-2-82v-28q0-4 4-4h494q17 0 29-12t12-31v-31q0-17-12-30t-29-13H373q-2-2-2-4 21-172 100-270 97-123 258-123 89 0 182 45 6 4 19 4 12 0 18-4 19-6 23-29l14-61q0-2 1-5.5t1-5.5q0-24-20-37Q859-8 711-8 596-8 498.5 41.5T332 184Q223 330 197 549q0 4-4 4h-70q-17 0-29 13t-12 30z"/><glyph unicode="◼" horiz-adv-x="1034" d="M0 0v1034h1034V0H0z"/></font>
</defs>
</svg>
